<?xml version="1.0" encoding="UTF-8"?>
<svg width="800" height="480" xmlns="http://www.w3.org/2000/svg">
  <rect width="800" height="480" fill="#f8fafc" />
  <rect width="800" height="65" fill="#1565C0" />
  <g id="u0" data-reveal-order="0" data-ref="title" data-type="title">
  <text x="80" y="44" font-family="Arial, sans-serif" font-size="18" font-weight="bold" fill="#FFFFFF" text-anchor="start">Explain: explain factors remediation</text>
  </g>
  <rect x="651" y="23" width="69" height="18" rx="4" fill="#000000" opacity="0.35" />
  <text x="685" y="36" font-family="Arial, sans-serif" font-size="10" font-weight="bold" fill="#FFFFFF" text-anchor="middle">EXPLAIN</text>
  <line x1="80" y1="65" x2="720" y2="65" stroke="#fecaca" stroke-width="1.5" />
  <rect x="80" y="65" width="118" height="16" rx="3" fill="#fef2f2" stroke="#fecaca" stroke-width="1.2" />
  <text x="139" y="76.5" font-family="Arial, sans-serif" font-size="8.5" font-weight="bold" fill="#7f1d1d" text-anchor="middle">MISCONCEPTION FIX</text>
  <g id="u1" data-reveal-order="1" data-ref="center" data-type="remediation_block">
  <rect x="80" y="90" width="294" height="202" rx="8" fill="#ffffff" stroke="#e2e8f0" stroke-width="1.2" />
  <path d="M 105 91 L 88 91 A 7 7 0 0 0 81 98 L 81 284 A 7 7 0 0 0 88 291 L 105 291 Z" fill="#ffedd5" />
  <line x1="105" y1="91" x2="105" y2="291" stroke="#fdba74" stroke-width="1" />
  <text x="93" y="191.0" font-family="Arial, sans-serif" font-size="9.5" font-weight="bold" fill="#9a3412" text-anchor="middle" transform="rotate(-90, 93, 191.0)">SOLVE</text>
  <text x="116" y="119" font-family="Arial, sans-serif" font-size="13" font-weight="bold" fill="#0f172a" text-anchor="start">What are the prime factors of 12?</text>
  <rect x="116" y="147" width="113" height="56" rx="6" fill="#f0fdf4" stroke="#22c55e" stroke-width="1.5" />
  <circle cx="135" cy="175" r="11" fill="#22c55e" />
  <text x="135" y="178.5" font-family="Arial, sans-serif" font-size="12" font-weight="bold" fill="#ffffff" text-anchor="middle">A</text>
  <text x="158" y="178" font-family="Arial, sans-serif" font-size="12" font-weight="normal" fill="#14532d" text-anchor="start">2 and 3</text>
  <rect x="245" y="147" width="113" height="56" rx="6" fill="#ffffff" stroke="#e2e8f0" stroke-width="1.5" />
  <circle cx="264" cy="175" r="11" fill="#f1f5f9" />
  <text x="264" y="178.5" font-family="Arial, sans-serif" font-size="12" font-weight="bold" fill="#64748b" text-anchor="middle">B</text>
  <text x="287" y="162" font-family="Arial, sans-serif" font-size="12" font-weight="normal" fill="#334155" text-anchor="start">2, 3, and</text>
  <text x="287" y="178" font-family="Arial, sans-serif" font-size="12" font-weight="normal" fill="#334155" text-anchor="start">4 (4 is</text>
  <text x="287" y="194" font-family="Arial, sans-serif" font-size="12" font-weight="normal" fill="#334155" text-anchor="start">composite)</text>
  <rect x="116" y="215" width="113" height="72" rx="6" fill="#fef2f2" stroke="#ef4444" stroke-width="1.5" />
  <circle cx="135" cy="251" r="11" fill="#ef4444" />
  <text x="135" y="254.5" font-family="Arial, sans-serif" font-size="12" font-weight="bold" fill="#ffffff" text-anchor="middle">C</text>
  <text x="158" y="230" font-family="Arial, sans-serif" font-size="12" font-weight="normal" fill="#7f1d1d" text-anchor="start">1, 2, 3,</text>
  <text x="158" y="246" font-family="Arial, sans-serif" font-size="12" font-weight="normal" fill="#7f1d1d" text-anchor="start">4, 6, 12</text>
  <text x="158" y="262" font-family="Arial, sans-serif" font-size="12" font-weight="normal" fill="#7f1d1d" text-anchor="start">(all</text>
  <text x="158" y="278" font-family="Arial, sans-serif" font-size="12" font-weight="normal" fill="#7f1d1d" text-anchor="start">factors)</text>
  <rect x="245" y="215" width="113" height="72" rx="6" fill="#ffffff" stroke="#e2e8f0" stroke-width="1.5" />
  <circle cx="264" cy="251" r="11" fill="#f1f5f9" />
  <text x="264" y="254.5" font-family="Arial, sans-serif" font-size="12" font-weight="bold" fill="#64748b" text-anchor="middle">D</text>
  <text x="287" y="254" font-family="Arial, sans-serif" font-size="12" font-weight="normal" fill="#334155" text-anchor="start">3 and 4</text>
  <rect x="390" y="90" width="330" height="124" rx="8" fill="#ffffff" stroke="#e2e8f0" stroke-width="1.2" />
  <path d="M 415 91 L 398 91 A 7 7 0 0 0 391 98 L 391 206 A 7 7 0 0 0 398 213 L 415 213 Z" fill="#dbeafe" />
  <line x1="415" y1="91" x2="415" y2="213" stroke="#93c5fd" stroke-width="1" />
  <text x="403" y="152.0" font-family="Arial, sans-serif" font-size="9.5" font-weight="bold" fill="#1e40af" text-anchor="middle" transform="rotate(-90, 403, 152.0)">REMEMBER</text>
  <text x="426" y="116" font-family="Arial, sans-serif" font-size="14" font-weight="bold" fill="#0284c7" text-anchor="start">Prime Factors Rule</text>
  <text x="426" y="138" font-family="Arial, sans-serif" font-size="12" font-weight="normal" fill="#334155" text-anchor="start">Factors are numbers you multiply together</text>
  <text x="426" y="156" font-family="Arial, sans-serif" font-size="12" font-weight="normal" fill="#334155" text-anchor="start">to get another number.</text>
  <text x="426" y="174" font-family="Arial, sans-serif" font-size="12" font-weight="normal" fill="#334155" text-anchor="start">Prime factors are factors that are also</text>
  <text x="426" y="192" font-family="Arial, sans-serif" font-size="12" font-weight="normal" fill="#334155" text-anchor="start">prime numbers.</text>
  <rect x="390" y="230" width="330" height="192" rx="8" fill="#ffffff" stroke="#e2e8f0" stroke-width="1.2" />
  <path d="M 415 231 L 398 231 A 7 7 0 0 0 391 238 L 391 414 A 7 7 0 0 0 398 421 L 415 421 Z" fill="#ffedd5" />
  <line x1="415" y1="231" x2="415" y2="421" stroke="#fdba74" stroke-width="1" />
  <text x="403" y="326.0" font-family="Arial, sans-serif" font-size="9.5" font-weight="bold" fill="#9a3412" text-anchor="middle" transform="rotate(-90, 403, 326.0)">SOLVE</text>
  <circle cx="441" cy="261" r="11" fill="#f97316" opacity="0.15" />
  <circle cx="441" cy="261" r="11" fill="none" stroke="#f97316" stroke-width="1.5" />
  <text x="441" y="265" font-family="Arial, sans-serif" font-size="11" font-weight="bold" fill="#c2410c" text-anchor="middle">1</text>
  <text x="464" y="264" font-family="Arial, sans-serif" font-size="12" font-weight="normal" fill="#334155" text-anchor="start">Step 1: List all factors of 12: 1, 2,</text>
  <text x="464" y="282" font-family="Arial, sans-serif" font-size="12" font-weight="normal" fill="#334155" text-anchor="start">3, 4, 6, 12.</text>
  <line x1="441" y1="272" x2="441" y2="294" stroke="#f97316" stroke-width="1.2" opacity="0.3" stroke-dasharray="3 3" />
  <circle cx="441" cy="305" r="11" fill="#f97316" opacity="0.15" />
  <circle cx="441" cy="305" r="11" fill="none" stroke="#f97316" stroke-width="1.5" />
  <text x="441" y="309" font-family="Arial, sans-serif" font-size="11" font-weight="bold" fill="#c2410c" text-anchor="middle">2</text>
  <text x="464" y="308" font-family="Arial, sans-serif" font-size="12" font-weight="normal" fill="#334155" text-anchor="start">Step 2: Identify prime numbers among</text>
  <text x="464" y="326" font-family="Arial, sans-serif" font-size="12" font-weight="normal" fill="#334155" text-anchor="start">them. Only 2 and 3 are prime.</text>
  <rect x="426" y="344" width="278" height="66" rx="6" fill="#f97316" opacity="0.08" />
  <rect x="426" y="344" width="278" height="66" rx="6" fill="none" stroke="#f97316" stroke-width="1.2" opacity="0.4" />
  <text x="440" y="363" font-family="Arial, sans-serif" font-size="11" font-weight="bold" fill="#0f172a" text-anchor="start">Therefore, the prime factors of 12 are 2</text>
  <text x="440" y="381" font-family="Arial, sans-serif" font-size="11" font-weight="bold" fill="#0f172a" text-anchor="start">and 3 (Option A).</text>
  </g>
</svg>