<?xml version="1.0" encoding="UTF-8"?>
<svg width="800" height="480" xmlns="http://www.w3.org/2000/svg">
  <rect width="800" height="480" fill="#f8fafc" />
  <rect width="800" height="65" fill="#1565C0" />
  <text x="80" y="24" font-family="Arial, sans-serif" font-size="18" font-weight="bold" fill="#FFFFFF" text-anchor="start">Adaptive Remediation Demo: Catching the Misconception —</text>
  <text x="80" y="44" font-family="Arial, sans-serif" font-size="18" font-weight="bold" fill="#FFFFFF" text-anchor="start">Explain: misconception explanation</text>
  <rect x="651" y="23" width="69" height="18" rx="4" fill="#000000" opacity="0.35" />
  <text x="685" y="36" font-family="Arial, sans-serif" font-size="10" font-weight="bold" fill="#FFFFFF" text-anchor="middle">EXPLAIN</text>
  <line x1="80" y1="65" x2="720" y2="65" stroke="#fecaca" stroke-width="1.5" />
  <rect x="80" y="65" width="118" height="16" rx="3" fill="#fef2f2" stroke="#fecaca" stroke-width="1.2" />
  <text x="139" y="76.5" font-family="Arial, sans-serif" font-size="8.5" font-weight="bold" fill="#7f1d1d" text-anchor="middle">MISCONCEPTION FIX</text>
  <rect x="80" y="90" width="640" height="124" rx="8" fill="#ffffff" stroke="#e2e8f0" stroke-width="1.2" />
  <path d="M 105 91 L 88 91 A 7 7 0 0 0 81 98 L 81 206 A 7 7 0 0 0 88 213 L 105 213 Z" fill="#dbeafe" />
  <line x1="105" y1="91" x2="105" y2="213" stroke="#93c5fd" stroke-width="1" />
  <text x="93" y="152.0" font-family="Arial, sans-serif" font-size="9.5" font-weight="bold" fill="#1e40af" text-anchor="middle" transform="rotate(-90, 93, 152.0)">REMEMBER</text>
  <text x="116" y="116" font-family="Arial, sans-serif" font-size="14" font-weight="bold" fill="#0284c7" text-anchor="start">Why -10 &lt; -2 (not -10 &gt; -2)</text>
  <text x="116" y="138" font-family="Arial, sans-serif" font-size="12" font-weight="normal" fill="#334155" text-anchor="start">WRONG: &#x27;I&#x27;ll compare the digits: 10 &gt; 2, so -10 &gt; -2.&#x27;</text>
  <text x="116" y="156" font-family="Arial, sans-serif" font-size="12" font-weight="normal" fill="#334155" text-anchor="start">RIGHT: &#x27;I&#x27;ll check the number line position: -10 is further LEFT, so -10 is smaller.&#x27;</text>
  <text x="116" y="174" font-family="Arial, sans-serif" font-size="12" font-weight="normal" fill="#334155" text-anchor="start">KEY INSIGHT: Negative numbers reverse our intuition about digits. More negative = smaller</text>
  <text x="116" y="192" font-family="Arial, sans-serif" font-size="12" font-weight="normal" fill="#334155" text-anchor="start">value.</text>
</svg>