<?xml version="1.0" encoding="UTF-8"?>
<svg width="800" height="480" xmlns="http://www.w3.org/2000/svg">
  <rect width="800" height="480" fill="#f8fafc" />
  <rect width="800" height="65" fill="#00695C" />
  <text x="80" y="24" font-family="Arial, sans-serif" font-size="18" font-weight="bold" fill="#FFFFFF" text-anchor="start">Negative Numbers — Understanding Values Below Zero —</text>
  <text x="80" y="44" font-family="Arial, sans-serif" font-size="18" font-weight="bold" fill="#FFFFFF" text-anchor="start">Explore: explore temperature scale</text>
  <rect x="651" y="23" width="69" height="18" rx="4" fill="#000000" opacity="0.35" />
  <text x="685" y="36" font-family="Arial, sans-serif" font-size="10" font-weight="bold" fill="#FFFFFF" text-anchor="middle">EXPLORE</text>
  <line x1="80" y1="65" x2="720" y2="65" stroke="#a5f3fc" stroke-width="1.5" />
  <rect x="80" y="65" width="58" height="16" rx="3" fill="#ecfeff" stroke="#a5f3fc" stroke-width="1.2" />
  <text x="109" y="76.5" font-family="Arial, sans-serif" font-size="8.5" font-weight="bold" fill="#083344" text-anchor="middle">EXAMPLE</text>
  <line x1="120" y1="135" x2="680" y2="135" stroke="#334155" stroke-width="1.5" />
  <line x1="120.0" y1="130" x2="120.0" y2="140" stroke="#334155" stroke-width="1.5" />
  <text x="120.0" y="153" font-family="Arial, sans-serif" font-size="10" font-weight="normal" fill="#334155" text-anchor="middle">-5</text>
  <line x1="176.0" y1="130" x2="176.0" y2="140" stroke="#334155" stroke-width="1.5" />
  <text x="176.0" y="153" font-family="Arial, sans-serif" font-size="10" font-weight="normal" fill="#334155" text-anchor="middle">-4</text>
  <line x1="232.0" y1="130" x2="232.0" y2="140" stroke="#334155" stroke-width="1.5" />
  <text x="232.0" y="153" font-family="Arial, sans-serif" font-size="10" font-weight="normal" fill="#334155" text-anchor="middle">-3</text>
  <line x1="288.0" y1="130" x2="288.0" y2="140" stroke="#334155" stroke-width="1.5" />
  <text x="288.0" y="153" font-family="Arial, sans-serif" font-size="10" font-weight="normal" fill="#334155" text-anchor="middle">-2</text>
  <line x1="344.0" y1="130" x2="344.0" y2="140" stroke="#334155" stroke-width="1.5" />
  <text x="344.0" y="153" font-family="Arial, sans-serif" font-size="10" font-weight="normal" fill="#334155" text-anchor="middle">-1</text>
  <line x1="400.0" y1="130" x2="400.0" y2="140" stroke="#0f172a" stroke-width="1.5" />
  <text x="400.0" y="153" font-family="Arial, sans-serif" font-size="10" font-weight="normal" fill="#0f172a" text-anchor="middle">0</text>
  <line x1="456.0" y1="130" x2="456.0" y2="140" stroke="#334155" stroke-width="1.5" />
  <text x="456.0" y="153" font-family="Arial, sans-serif" font-size="10" font-weight="normal" fill="#334155" text-anchor="middle">1</text>
  <line x1="512.0" y1="130" x2="512.0" y2="140" stroke="#334155" stroke-width="1.5" />
  <text x="512.0" y="153" font-family="Arial, sans-serif" font-size="10" font-weight="normal" fill="#334155" text-anchor="middle">2</text>
  <line x1="568.0" y1="130" x2="568.0" y2="140" stroke="#334155" stroke-width="1.5" />
  <text x="568.0" y="153" font-family="Arial, sans-serif" font-size="10" font-weight="normal" fill="#334155" text-anchor="middle">3</text>
  <line x1="624.0" y1="130" x2="624.0" y2="140" stroke="#334155" stroke-width="1.5" />
  <text x="624.0" y="153" font-family="Arial, sans-serif" font-size="10" font-weight="normal" fill="#334155" text-anchor="middle">4</text>
  <line x1="680.0" y1="130" x2="680.0" y2="140" stroke="#334155" stroke-width="1.5" />
  <text x="680.0" y="153" font-family="Arial, sans-serif" font-size="10" font-weight="normal" fill="#334155" text-anchor="middle">5</text>
  <text x="120" y="121" font-family="Arial, sans-serif" font-size="10" font-weight="normal" fill="#334155" text-anchor="middle">Colder / Less</text>
  <text x="680" y="121" font-family="Arial, sans-serif" font-size="10" font-weight="normal" fill="#334155" text-anchor="middle">Warmer / More</text>
  <rect x="120.0" y="129" width="448.0" height="12" rx="3" fill="#FFFFFF" opacity="0.12" />
  <line x1="120.0" y1="107" x2="120.0" y2="135" stroke="#3b82f6" stroke-width="2.5" />
  <text x="120.0" y="101" font-family="Arial, sans-serif" font-size="11" font-weight="normal" fill="#1d4ed8" text-anchor="middle">-5°C</text>
  <line x1="400.0" y1="121" x2="400.0" y2="135" stroke="#64748b" stroke-width="2.5" />
  <text x="400.0" y="115" font-family="Arial, sans-serif" font-size="11" font-weight="normal" fill="#64748b" text-anchor="middle">0°C</text>
  <line x1="568.0" y1="121" x2="568.0" y2="135" stroke="#22c55e" stroke-width="2.5" />
  <text x="568.0" y="115" font-family="Arial, sans-serif" font-size="11" font-weight="normal" fill="#15803d" text-anchor="middle">3°C</text>
</svg>