<?xml version="1.0" encoding="UTF-8"?>
<svg width="800" height="480" xmlns="http://www.w3.org/2000/svg">
  <rect width="800" height="480" fill="#f8fafc" />
  <rect width="800" height="65" fill="#BF360C" />
  <text x="80" y="24" font-family="Arial, sans-serif" font-size="18" font-weight="bold" fill="#FFFFFF" text-anchor="start">Negative Numbers - Understanding Values Below Zero — Hook:</text>
  <text x="80" y="44" font-family="Arial, sans-serif" font-size="18" font-weight="bold" fill="#FFFFFF" text-anchor="start">hook real world</text>
  <rect x="672" y="23" width="48" height="18" rx="4" fill="#000000" opacity="0.35" />
  <text x="696" y="36" font-family="Arial, sans-serif" font-size="10" font-weight="bold" fill="#FFFFFF" text-anchor="middle">HOOK</text>
  <line x1="80" y1="65" x2="720" y2="65" stroke="#fde047" stroke-width="1.5" />
  <rect x="80" y="65" width="52" height="16" rx="3" fill="#fef3c7" stroke="#fde047" stroke-width="1.2" />
  <text x="106" y="76.5" font-family="Arial, sans-serif" font-size="8.5" font-weight="bold" fill="#78350f" text-anchor="middle">ANCHOR</text>
  <rect x="80" y="90" width="640" height="90" rx="8" fill="#3b82f6" opacity="0.07" />
  <rect x="80" y="90" width="640" height="90" rx="8" fill="none" stroke="#3b82f6" stroke-width="1" opacity="0.3" />
  <rect x="80" y="98" width="5" height="74" rx="2" fill="#3b82f6" />
  <text x="99" y="139" font-family="Arial, sans-serif" font-size="20" font-weight="bold" fill="#1d4ed8" text-anchor="start">Temperature: Five degrees below zero (-5 deg C)</text>
  <rect x="80" y="192" width="640" height="90" rx="8" fill="#ef4444" opacity="0.07" />
  <rect x="80" y="192" width="640" height="90" rx="8" fill="none" stroke="#ef4444" stroke-width="1" opacity="0.3" />
  <rect x="80" y="200" width="5" height="74" rx="2" fill="#ef4444" />
  <text x="99" y="241" font-family="Arial, sans-serif" font-size="20" font-weight="bold" fill="#b91c1c" text-anchor="start">Finance: Owing ten dollars (-$10)</text>
</svg>