<?xml version="1.0" encoding="UTF-8"?>
<svg width="800" height="480" xmlns="http://www.w3.org/2000/svg">
  <rect width="800" height="480" fill="#f8fafc" />
  <rect width="800" height="65" fill="#4E342E" />
  <g id="u0" data-reveal-order="0" data-ref="title" data-type="title">
  <text x="80" y="44" font-family="Arial, sans-serif" font-size="18" font-weight="bold" fill="#FFFFFF" text-anchor="start">Recall: recall negative 2</text>
  </g>
  <rect x="658" y="23" width="62" height="18" rx="4" fill="#000000" opacity="0.35" />
  <text x="689" y="36" font-family="Arial, sans-serif" font-size="10" font-weight="bold" fill="#FFFFFF" text-anchor="middle">RECALL</text>
  <line x1="80" y1="65" x2="720" y2="65" stroke="#fed7aa" stroke-width="1.5" />
  <rect x="80" y="65" width="70" height="16" rx="3" fill="#fff7ed" stroke="#fed7aa" stroke-width="1.2" />
  <text x="115" y="76.5" font-family="Arial, sans-serif" font-size="8.5" font-weight="bold" fill="#7c2d12" text-anchor="middle">RETRIEVAL</text>
  <g id="u1" data-reveal-order="1" data-ref="center" data-type="multiple_choice">
  <rect x="80" y="90" width="640" height="134" rx="8" fill="#ffffff" stroke="#e2e8f0" stroke-width="1.2" />
  <path d="M 105 91 L 88 91 A 7 7 0 0 0 81 98 L 81 216 A 7 7 0 0 0 88 223 L 105 223 Z" fill="#ffedd5" />
  <line x1="105" y1="91" x2="105" y2="223" stroke="#fdba74" stroke-width="1" />
  <text x="93" y="157.0" font-family="Arial, sans-serif" font-size="9.5" font-weight="bold" fill="#9a3412" text-anchor="middle" transform="rotate(-90, 93, 157.0)">SOLVE</text>
  <text x="116" y="119" font-family="Arial, sans-serif" font-size="13" font-weight="bold" fill="#0f172a" text-anchor="start">WITHOUT LOOKING BACK — Arrange from smallest to largest: -3, 1, -8, 0</text>
  <rect x="116" y="147" width="286" height="30" rx="6" fill="#ffffff" stroke="#e2e8f0" stroke-width="1.5" />
  <circle cx="135" cy="162" r="11" fill="#f1f5f9" />
  <text x="135" y="165.5" font-family="Arial, sans-serif" font-size="12" font-weight="bold" fill="#64748b" text-anchor="middle">A</text>
  <text x="158" y="165" font-family="Arial, sans-serif" font-size="12" font-weight="normal" fill="#334155" text-anchor="start">-8, -3, 0, 1</text>
  <rect x="418" y="147" width="286" height="30" rx="6" fill="#ffffff" stroke="#e2e8f0" stroke-width="1.5" />
  <circle cx="437" cy="162" r="11" fill="#f1f5f9" />
  <text x="437" y="165.5" font-family="Arial, sans-serif" font-size="12" font-weight="bold" fill="#64748b" text-anchor="middle">B</text>
  <text x="460" y="165" font-family="Arial, sans-serif" font-size="12" font-weight="normal" fill="#334155" text-anchor="start">-3, -8, 0, 1</text>
  <rect x="116" y="189" width="286" height="30" rx="6" fill="#ffffff" stroke="#e2e8f0" stroke-width="1.5" />
  <circle cx="135" cy="204" r="11" fill="#f1f5f9" />
  <text x="135" y="207.5" font-family="Arial, sans-serif" font-size="12" font-weight="bold" fill="#64748b" text-anchor="middle">C</text>
  <text x="158" y="207" font-family="Arial, sans-serif" font-size="12" font-weight="normal" fill="#334155" text-anchor="start">1, 0, -3, -8</text>
  <rect x="418" y="189" width="286" height="30" rx="6" fill="#ffffff" stroke="#e2e8f0" stroke-width="1.5" />
  <circle cx="437" cy="204" r="11" fill="#f1f5f9" />
  <text x="437" y="207.5" font-family="Arial, sans-serif" font-size="12" font-weight="bold" fill="#64748b" text-anchor="middle">D</text>
  <text x="460" y="207" font-family="Arial, sans-serif" font-size="12" font-weight="normal" fill="#334155" text-anchor="start">0, 1, -3, -8</text>
  </g>
</svg>