<?xml version="1.0" encoding="UTF-8"?>
<svg width="800" height="480" xmlns="http://www.w3.org/2000/svg">
  <rect width="800" height="480" fill="#f8fafc" />
  <rect width="800" height="65" fill="#1B5E20" />
  <g id="u0" data-reveal-order="0" data-ref="title" data-type="title">
  <text x="80" y="44" font-family="Arial, sans-serif" font-size="18" font-weight="bold" fill="#FFFFFF" text-anchor="start">Independent Practice: assess mcq linear</text>
  </g>
  <rect x="651" y="23" width="69" height="18" rx="4" fill="#000000" opacity="0.35" />
  <text x="685" y="36" font-family="Arial, sans-serif" font-size="10" font-weight="bold" fill="#FFFFFF" text-anchor="middle">STARTER</text>
  <line x1="80" y1="65" x2="720" y2="65" stroke="#bbf7d0" stroke-width="1.5" />
  <rect x="80" y="65" width="64" height="16" rx="3" fill="#f0fdf4" stroke="#bbf7d0" stroke-width="1.2" />
  <text x="112" y="76.5" font-family="Arial, sans-serif" font-size="8.5" font-weight="bold" fill="#14532d" text-anchor="middle">PRACTICE</text>
  <g id="u1" data-reveal-order="1" data-ref="center" data-type="multiple_choice">
  <rect x="80" y="90" width="640" height="154" rx="8" fill="#ffffff" stroke="#e2e8f0" stroke-width="1.2" />
  <path d="M 105 91 L 88 91 A 7 7 0 0 0 81 98 L 81 236 A 7 7 0 0 0 88 243 L 105 243 Z" fill="#ffedd5" />
  <line x1="105" y1="91" x2="105" y2="243" stroke="#fdba74" stroke-width="1" />
  <text x="93" y="167.0" font-family="Arial, sans-serif" font-size="9.5" font-weight="bold" fill="#9a3412" text-anchor="middle" transform="rotate(-90, 93, 167.0)">SOLVE</text>
  <text x="116" y="119" font-family="Arial, sans-serif" font-size="13" font-weight="bold" fill="#0f172a" text-anchor="start">Solve for x:  3x = 12</text>
  <rect x="116" y="147" width="286" height="40" rx="6" fill="#ffffff" stroke="#e2e8f0" stroke-width="1.5" />
  <circle cx="135" cy="167" r="11" fill="#f1f5f9" />
  <text x="135" y="170.5" font-family="Arial, sans-serif" font-size="12" font-weight="bold" fill="#64748b" text-anchor="middle">A</text>
  <text x="158" y="170" font-family="Arial, sans-serif" font-size="12" font-weight="normal" fill="#334155" text-anchor="start">x = 4</text>
  <rect x="418" y="147" width="286" height="40" rx="6" fill="#ffffff" stroke="#e2e8f0" stroke-width="1.5" />
  <circle cx="437" cy="167" r="11" fill="#f1f5f9" />
  <text x="437" y="170.5" font-family="Arial, sans-serif" font-size="12" font-weight="bold" fill="#64748b" text-anchor="middle">B</text>
  <text x="460" y="162" font-family="Arial, sans-serif" font-size="12" font-weight="normal" fill="#334155" text-anchor="start">x = 9  (subtracted 3 instead of</text>
  <text x="460" y="178" font-family="Arial, sans-serif" font-size="12" font-weight="normal" fill="#334155" text-anchor="start">dividing)</text>
  <rect x="116" y="199" width="286" height="40" rx="6" fill="#ffffff" stroke="#e2e8f0" stroke-width="1.5" />
  <circle cx="135" cy="219" r="11" fill="#f1f5f9" />
  <text x="135" y="222.5" font-family="Arial, sans-serif" font-size="12" font-weight="bold" fill="#64748b" text-anchor="middle">C</text>
  <text x="158" y="214" font-family="Arial, sans-serif" font-size="12" font-weight="normal" fill="#334155" text-anchor="start">x = 36 (multiplied instead of</text>
  <text x="158" y="230" font-family="Arial, sans-serif" font-size="12" font-weight="normal" fill="#334155" text-anchor="start">dividing)</text>
  <rect x="418" y="199" width="286" height="40" rx="6" fill="#ffffff" stroke="#e2e8f0" stroke-width="1.5" />
  <circle cx="437" cy="219" r="11" fill="#f1f5f9" />
  <text x="437" y="222.5" font-family="Arial, sans-serif" font-size="12" font-weight="bold" fill="#64748b" text-anchor="middle">D</text>
  <text x="460" y="222" font-family="Arial, sans-serif" font-size="12" font-weight="normal" fill="#334155" text-anchor="start">x = 15 (added 3 instead of dividing)</text>
  </g>
</svg>