<?xml version="1.0" encoding="UTF-8"?>
<svg width="800" height="480" xmlns="http://www.w3.org/2000/svg">
  <rect width="800" height="480" fill="#f8fafc" />
  <rect width="800" height="65" fill="#1565C0" />
  <g id="u0" data-reveal-order="0" data-ref="title" data-type="title">
  <text x="80" y="44" font-family="Arial, sans-serif" font-size="18" font-weight="bold" fill="#FFFFFF" text-anchor="start">Explain: coordinate plane demo</text>
  </g>
  <rect x="651" y="23" width="69" height="18" rx="4" fill="#000000" opacity="0.35" />
  <text x="685" y="36" font-family="Arial, sans-serif" font-size="10" font-weight="bold" fill="#FFFFFF" text-anchor="middle">EXPLAIN</text>
  <line x1="80" y1="65" x2="720" y2="65" stroke="#a5f3fc" stroke-width="1.5" />
  <rect x="80" y="65" width="58" height="16" rx="3" fill="#ecfeff" stroke="#a5f3fc" stroke-width="1.2" />
  <text x="109" y="76.5" font-family="Arial, sans-serif" font-size="8.5" font-weight="bold" fill="#083344" text-anchor="middle">EXAMPLE</text>
  <g id="u1" data-reveal-order="1" data-ref="center" data-type="coordinate_plane">
  <line x1="250.0" y1="118" x2="250.0" y2="418.0" stroke="#cbd5e1" stroke-width="0.5" />
  <text x="250.0" y="432.0" font-family="Arial, sans-serif" font-size="10" font-weight="normal" fill="#334155" text-anchor="middle">-4</text>
  <line x1="287.5" y1="118" x2="287.5" y2="418.0" stroke="#cbd5e1" stroke-width="0.5" />
  <text x="287.5" y="432.0" font-family="Arial, sans-serif" font-size="10" font-weight="normal" fill="#334155" text-anchor="middle">-3</text>
  <line x1="325.0" y1="118" x2="325.0" y2="418.0" stroke="#cbd5e1" stroke-width="0.5" />
  <text x="325.0" y="432.0" font-family="Arial, sans-serif" font-size="10" font-weight="normal" fill="#334155" text-anchor="middle">-2</text>
  <line x1="362.5" y1="118" x2="362.5" y2="418.0" stroke="#cbd5e1" stroke-width="0.5" />
  <text x="362.5" y="432.0" font-family="Arial, sans-serif" font-size="10" font-weight="normal" fill="#334155" text-anchor="middle">-1</text>
  <line x1="400.0" y1="118" x2="400.0" y2="418.0" stroke="#334155" stroke-width="1.5" />
  <text x="400.0" y="432.0" font-family="Arial, sans-serif" font-size="10" font-weight="normal" fill="#334155" text-anchor="middle">0</text>
  <line x1="437.5" y1="118" x2="437.5" y2="418.0" stroke="#cbd5e1" stroke-width="0.5" />
  <text x="437.5" y="432.0" font-family="Arial, sans-serif" font-size="10" font-weight="normal" fill="#334155" text-anchor="middle">1</text>
  <line x1="475.0" y1="118" x2="475.0" y2="418.0" stroke="#cbd5e1" stroke-width="0.5" />
  <text x="475.0" y="432.0" font-family="Arial, sans-serif" font-size="10" font-weight="normal" fill="#334155" text-anchor="middle">2</text>
  <line x1="512.5" y1="118" x2="512.5" y2="418.0" stroke="#cbd5e1" stroke-width="0.5" />
  <text x="512.5" y="432.0" font-family="Arial, sans-serif" font-size="10" font-weight="normal" fill="#334155" text-anchor="middle">3</text>
  <line x1="550.0" y1="118" x2="550.0" y2="418.0" stroke="#cbd5e1" stroke-width="0.5" />
  <text x="550.0" y="432.0" font-family="Arial, sans-serif" font-size="10" font-weight="normal" fill="#334155" text-anchor="middle">4</text>
  <line x1="250.0" y1="418.0" x2="550.0" y2="418.0" stroke="#cbd5e1" stroke-width="0.5" />
  <text x="244.0" y="422.0" font-family="Arial, sans-serif" font-size="10" font-weight="normal" fill="#334155" text-anchor="end">-4</text>
  <line x1="250.0" y1="380.5" x2="550.0" y2="380.5" stroke="#cbd5e1" stroke-width="0.5" />
  <text x="244.0" y="384.5" font-family="Arial, sans-serif" font-size="10" font-weight="normal" fill="#334155" text-anchor="end">-3</text>
  <line x1="250.0" y1="343.0" x2="550.0" y2="343.0" stroke="#cbd5e1" stroke-width="0.5" />
  <text x="244.0" y="347.0" font-family="Arial, sans-serif" font-size="10" font-weight="normal" fill="#334155" text-anchor="end">-2</text>
  <line x1="250.0" y1="305.5" x2="550.0" y2="305.5" stroke="#cbd5e1" stroke-width="0.5" />
  <text x="244.0" y="309.5" font-family="Arial, sans-serif" font-size="10" font-weight="normal" fill="#334155" text-anchor="end">-1</text>
  <line x1="250.0" y1="268.0" x2="550.0" y2="268.0" stroke="#334155" stroke-width="1.5" />
  <line x1="250.0" y1="230.5" x2="550.0" y2="230.5" stroke="#cbd5e1" stroke-width="0.5" />
  <text x="244.0" y="234.5" font-family="Arial, sans-serif" font-size="10" font-weight="normal" fill="#334155" text-anchor="end">1</text>
  <line x1="250.0" y1="193.0" x2="550.0" y2="193.0" stroke="#cbd5e1" stroke-width="0.5" />
  <text x="244.0" y="197.0" font-family="Arial, sans-serif" font-size="10" font-weight="normal" fill="#334155" text-anchor="end">2</text>
  <line x1="250.0" y1="155.5" x2="550.0" y2="155.5" stroke="#cbd5e1" stroke-width="0.5" />
  <text x="244.0" y="159.5" font-family="Arial, sans-serif" font-size="10" font-weight="normal" fill="#334155" text-anchor="end">3</text>
  <line x1="250.0" y1="118.0" x2="550.0" y2="118.0" stroke="#cbd5e1" stroke-width="0.5" />
  <text x="244.0" y="122.0" font-family="Arial, sans-serif" font-size="10" font-weight="normal" fill="#334155" text-anchor="end">4</text>
  <polygon points="557.0,268.0 552.0,265.5 552.0,270.5" fill="#334155" />
  <polygon points="400.0,111 397.5,116.0 402.5,116.0" fill="#334155" />
  <line x1="250.0" y1="418.0" x2="550.0" y2="118.0" stroke="#06b6d4" stroke-width="2" />
  <circle cx="475.0" cy="193.0" r="4" fill="#22c55e" />
  <text x="483.0" y="187.0" font-family="Arial, sans-serif" font-size="11" font-weight="normal" fill="#15803d" text-anchor="start">(2, 2)</text>
  <circle cx="287.5" cy="380.5" r="4" fill="#ef4444" />
  <text x="295.5" y="374.5" font-family="Arial, sans-serif" font-size="11" font-weight="normal" fill="#b91c1c" text-anchor="start">(-3, -3)</text>
  </g>
</svg>