<?xml version="1.0" encoding="UTF-8"?>
<svg width="800" height="480" xmlns="http://www.w3.org/2000/svg">
  <rect width="800" height="480" fill="#f8fafc" />
  <rect width="800" height="65" fill="#1565C0" />
  <g id="u0" data-reveal-order="0" data-ref="title" data-type="title">
  <text x="80" y="44" font-family="Arial, sans-serif" font-size="18" font-weight="bold" fill="#FFFFFF" text-anchor="start">Explain: fraction model circle</text>
  </g>
  <rect x="651" y="23" width="69" height="18" rx="4" fill="#000000" opacity="0.35" />
  <text x="685" y="36" font-family="Arial, sans-serif" font-size="10" font-weight="bold" fill="#FFFFFF" text-anchor="middle">EXPLAIN</text>
  <line x1="80" y1="65" x2="720" y2="65" stroke="#a5f3fc" stroke-width="1.5" />
  <rect x="80" y="65" width="58" height="16" rx="3" fill="#ecfeff" stroke="#a5f3fc" stroke-width="1.2" />
  <text x="109" y="76.5" font-family="Arial, sans-serif" font-size="8.5" font-weight="bold" fill="#083344" text-anchor="middle">EXAMPLE</text>
  <g id="u1" data-reveal-order="1" data-ref="center" data-type="fraction_model">
  <circle cx="400" cy="170" r="70" fill="#ffffff" stroke="#22c55e" stroke-width="1.5" />
  <path d="M 400,170 L 400.0,100.0 A 70,70 0 0,1 470.0,170.0 Z" fill="#22c55e" opacity="0.7" />
  <path d="M 400,170 L 470.0,170.0 A 70,70 0 0,1 400.0,240.0 Z" fill="#22c55e" opacity="0.7" />
  <path d="M 400,170 L 400.0,240.0 A 70,70 0 0,1 330.0,170.0 Z" fill="#22c55e" opacity="0.7" />
  <line x1="400" y1="170" x2="400.0" y2="100.0" stroke="#ffffff" stroke-width="1.5" />
  <line x1="400" y1="170" x2="470.0" y2="170.0" stroke="#ffffff" stroke-width="1.5" />
  <line x1="400" y1="170" x2="400.0" y2="240.0" stroke="#ffffff" stroke-width="1.5" />
  <line x1="400" y1="170" x2="330.0" y2="170.0" stroke="#ffffff" stroke-width="1.5" />
  <text x="400" y="262" font-family="Arial, sans-serif" font-size="11" font-weight="normal" fill="#15803d" text-anchor="middle">3/4 shaded</text>
  </g>
</svg>