<?xml version="1.0" encoding="UTF-8"?>
<svg width="800" height="480" xmlns="http://www.w3.org/2000/svg">
  <rect width="800" height="480" fill="#f8fafc" />
  <rect width="800" height="65" fill="#4A148C" />
  <g id="u0" data-reveal-order="0" data-ref="title" data-type="title">
  <text x="80" y="44" font-family="Arial, sans-serif" font-size="18" font-weight="bold" fill="#FFFFFF" text-anchor="start">Guided Practice: hint list standalone</text>
  </g>
  <rect x="658" y="23" width="62" height="18" rx="4" fill="#000000" opacity="0.35" />
  <text x="689" y="36" font-family="Arial, sans-serif" font-size="10" font-weight="bold" fill="#FFFFFF" text-anchor="middle">GUIDED</text>
  <line x1="80" y1="65" x2="720" y2="65" stroke="#a5f3fc" stroke-width="1.5" />
  <rect x="80" y="65" width="58" height="16" rx="3" fill="#ecfeff" stroke="#a5f3fc" stroke-width="1.2" />
  <text x="109" y="76.5" font-family="Arial, sans-serif" font-size="8.5" font-weight="bold" fill="#083344" text-anchor="middle">EXAMPLE</text>
  <g id="u1" data-reveal-order="1" data-ref="center" data-type="hint_list">
  <rect x="80" y="90" width="640" height="182" rx="8" fill="#ffffff" stroke="#e2e8f0" stroke-width="1.2" />
  <path d="M 105 91 L 88 91 A 7 7 0 0 0 81 98 L 81 264 A 7 7 0 0 0 88 271 L 105 271 Z" fill="#ffedd5" />
  <line x1="105" y1="91" x2="105" y2="271" stroke="#fdba74" stroke-width="1" />
  <text x="93" y="181.0" font-family="Arial, sans-serif" font-size="9.5" font-weight="bold" fill="#9a3412" text-anchor="middle" transform="rotate(-90, 93, 181.0)">SOLVE</text>
  <circle cx="131" cy="121" r="11" fill="#f97316" opacity="0.15" />
  <circle cx="131" cy="121" r="11" fill="none" stroke="#f97316" stroke-width="1.5" />
  <text x="131" y="125" font-family="Arial, sans-serif" font-size="11" font-weight="bold" fill="#c2410c" text-anchor="middle">1</text>
  <text x="154" y="124" font-family="Arial, sans-serif" font-size="12" font-weight="normal" fill="#334155" text-anchor="start">Step 1: Identify the shape type.</text>
  <line x1="131" y1="132" x2="131" y2="142" stroke="#f97316" stroke-width="1.2" opacity="0.3" stroke-dasharray="3 3" />
  <circle cx="131" cy="153" r="11" fill="#f97316" opacity="0.15" />
  <circle cx="131" cy="153" r="11" fill="none" stroke="#f97316" stroke-width="1.5" />
  <text x="131" y="157" font-family="Arial, sans-serif" font-size="11" font-weight="bold" fill="#c2410c" text-anchor="middle">2</text>
  <text x="154" y="156" font-family="Arial, sans-serif" font-size="12" font-weight="normal" fill="#334155" text-anchor="start">Step 2: Write the formula for its area or volume.</text>
  <line x1="131" y1="164" x2="131" y2="174" stroke="#f97316" stroke-width="1.2" opacity="0.3" stroke-dasharray="3 3" />
  <circle cx="131" cy="185" r="11" fill="#f97316" opacity="0.15" />
  <circle cx="131" cy="185" r="11" fill="none" stroke="#f97316" stroke-width="1.5" />
  <text x="131" y="189" font-family="Arial, sans-serif" font-size="11" font-weight="bold" fill="#c2410c" text-anchor="middle">3</text>
  <text x="154" y="188" font-family="Arial, sans-serif" font-size="12" font-weight="normal" fill="#334155" text-anchor="start">Step 3: Substitute known values and calculate.</text>
  <rect x="116" y="212" width="588" height="48" rx="6" fill="#f97316" opacity="0.08" />
  <rect x="116" y="212" width="588" height="48" rx="6" fill="none" stroke="#f97316" stroke-width="1.2" opacity="0.4" />
  <text x="130" y="231" font-family="Arial, sans-serif" font-size="11" font-weight="bold" fill="#0f172a" text-anchor="start">Always include units in your final answer.</text>
  </g>
</svg>