<?xml version="1.0" encoding="UTF-8"?>
<svg width="800" height="480" xmlns="http://www.w3.org/2000/svg">
  <rect width="800" height="480" fill="#f8fafc" />
  <rect width="800" height="65" fill="#4A148C" />
  <g id="u0" data-reveal-order="0" data-ref="title" data-type="title">
  <text x="80" y="44" font-family="Arial, sans-serif" font-size="18" font-weight="bold" fill="#FFFFFF" text-anchor="start">Guided Practice: math grid arithmetic</text>
  </g>
  <rect x="658" y="23" width="62" height="18" rx="4" fill="#000000" opacity="0.35" />
  <text x="689" y="36" font-family="Arial, sans-serif" font-size="10" font-weight="bold" fill="#FFFFFF" text-anchor="middle">GUIDED</text>
  <line x1="80" y1="65" x2="720" y2="65" stroke="#a5f3fc" stroke-width="1.5" />
  <rect x="80" y="65" width="58" height="16" rx="3" fill="#ecfeff" stroke="#a5f3fc" stroke-width="1.2" />
  <text x="109" y="76.5" font-family="Arial, sans-serif" font-size="8.5" font-weight="bold" fill="#083344" text-anchor="middle">EXAMPLE</text>
  <g id="u1" data-reveal-order="1" data-ref="center" data-type="math_grid">
  <text x="360" y="105" font-family="Arial, sans-serif" font-size="10" font-weight="normal" fill="#334155" text-anchor="middle">H</text>
  <text x="400" y="105" font-family="Arial, sans-serif" font-size="10" font-weight="normal" fill="#334155" text-anchor="middle">T</text>
  <text x="440" y="105" font-family="Arial, sans-serif" font-size="10" font-weight="normal" fill="#334155" text-anchor="middle">U</text>
  <rect x="380" y="125" width="40" height="40" rx="4" fill="none" stroke="#64748b" stroke-width="1" />
  <text x="400" y="150" font-family="Arial, sans-serif" font-size="18" font-weight="normal" fill="#0e7490" text-anchor="middle">3</text>
  <rect x="420" y="125" width="40" height="40" rx="4" fill="none" stroke="#64748b" stroke-width="1" />
  <text x="440" y="150" font-family="Arial, sans-serif" font-size="18" font-weight="normal" fill="#0e7490" text-anchor="middle">7</text>
  <text x="360" y="194" font-family="Arial, sans-serif" font-size="18" font-weight="bold" fill="#0e7490" text-anchor="middle">+</text>
  <rect x="380" y="169" width="40" height="40" rx="4" fill="none" stroke="#64748b" stroke-width="1" />
  <text x="400" y="194" font-family="Arial, sans-serif" font-size="18" font-weight="normal" fill="#0e7490" text-anchor="middle">1</text>
  <rect x="420" y="169" width="40" height="40" rx="4" fill="none" stroke="#64748b" stroke-width="1" />
  <text x="440" y="194" font-family="Arial, sans-serif" font-size="18" font-weight="normal" fill="#0e7490" text-anchor="middle">5</text>
  <line x1="340" y1="217" x2="460" y2="217" stroke="#334155" stroke-width="2" />
  <rect x="380" y="223" width="40" height="40" rx="4" fill="none" stroke="#64748b" stroke-width="1" />
  <text x="400" y="248" font-family="Arial, sans-serif" font-size="18" font-weight="normal" fill="#334155" text-anchor="middle">5</text>
  <rect x="420" y="223" width="40" height="40" rx="4" fill="none" stroke="#64748b" stroke-width="1" />
  <text x="440" y="248" font-family="Arial, sans-serif" font-size="18" font-weight="normal" fill="#334155" text-anchor="middle">2</text>
  </g>
</svg>