<?xml version="1.0" encoding="UTF-8"?>
<svg width="800" height="480" xmlns="http://www.w3.org/2000/svg">
  <rect width="800" height="480" fill="#f8fafc" />
  <rect width="800" height="65" fill="#00695C" />
  <g id="u0" data-reveal-order="0" data-ref="title" data-type="title">
  <text x="80" y="44" font-family="Arial, sans-serif" font-size="18" font-weight="bold" fill="#FFFFFF" text-anchor="start">Explore: solid cylinder</text>
  </g>
  <rect x="651" y="23" width="69" height="18" rx="4" fill="#000000" opacity="0.35" />
  <text x="685" y="36" font-family="Arial, sans-serif" font-size="10" font-weight="bold" fill="#FFFFFF" text-anchor="middle">EXPLORE</text>
  <line x1="80" y1="65" x2="720" y2="65" stroke="#a5f3fc" stroke-width="1.5" />
  <rect x="80" y="65" width="58" height="16" rx="3" fill="#ecfeff" stroke="#a5f3fc" stroke-width="1.2" />
  <text x="109" y="76.5" font-family="Arial, sans-serif" font-size="8.5" font-weight="bold" fill="#083344" text-anchor="middle">EXAMPLE</text>
  <g id="u1" data-reveal-order="1" data-ref="center" data-type="solid_shape">
  <polygon points="400.0,110.0 399.8266501601991,111.23501596815247 399.3082700945163,112.45813805740322 398.4498520863595,113.65758693340622 397.2596631704063,114.82181124780013 395.74916551654076,115.93959888400757 393.9329060428916,117.00018493604699 391.82837632105856,117.99335538046194 389.4558441227157,118.9095454429505 386.83815822989123,119.73993171237049 384.0005283887057,120.47651711501207 380.9702825257359,121.11220793078927 377.7766035651432,121.6408821096422 374.45024838116063,122.05744823022583 371.0232515925806,122.3578945330807 367.52861705186416,122.53932755606968 364.0,122.6 360.47138294813584,122.53932755606968 356.9767484074194,122.3578945330807 353.54975161883937,122.05744823022583 350.2233964348568,121.6408821096422 347.0297174742641,121.11220793078927 343.9994716112943,120.47651711501207 341.16184177010877,119.73993171237049 338.5441558772843,118.9095454429505 336.17162367894144,117.99335538046194 334.06709395710834,117.00018493604699 332.25083448345924,115.93959888400757 330.7403368295937,114.82181124780013 329.5501479136405,113.65758693340622 328.6917299054837,112.45813805740322 328.1733498398009,111.23501596815247 328.0,110.0 328.1733498398009,108.76498403184753 328.6917299054837,107.54186194259678 329.5501479136405,106.34241306659378 330.7403368295937,105.17818875219987 332.25083448345924,104.06040111599243 334.06709395710834,102.99981506395301 336.17162367894144,102.00664461953806 338.5441558772843,101.0904545570495 341.16184177010877,100.26006828762952 343.9994716112943,99.52348288498793 347.0297174742641,98.88779206921073 350.22339643485674,98.3591178903578 353.54975161883937,97.94255176977417 356.9767484074194,97.6421054669193 360.47138294813584,97.46067244393032 364.0,97.4 367.52861705186416,97.46067244393032 371.0232515925806,97.6421054669193 374.45024838116063,97.94255176977417 377.77660356514326,98.3591178903578 380.9702825257359,98.88779206921073 384.0005283887057,99.52348288498793 386.83815822989123,100.26006828762951 389.4558441227157,101.0904545570495 391.8283763210585,102.00664461953806 393.9329060428916,102.99981506395301 395.74916551654076,104.06040111599242 397.2596631704063,105.17818875219986 398.4498520863595,106.34241306659378 399.3082700945163,107.54186194259678 399.8266501601991,108.76498403184753 399.8266501601991,228.76498403184755 399.3082700945163,227.54186194259677 398.4498520863595,226.34241306659376 397.2596631704063,225.17818875219987 395.74916551654076,224.06040111599242 393.9329060428916,222.999815063953 391.8283763210585,222.00664461953806 389.4558441227157,221.0904545570495 386.83815822989123,220.2600682876295 384.0005283887057,219.5234828849879 380.9702825257359,218.88779206921072 377.77660356514326,218.3591178903578 374.45024838116063,217.94255176977416 371.0232515925806,217.6421054669193 367.52861705186416,217.46067244393032 364.0,217.4 360.47138294813584,217.46067244393032 356.9767484074194,217.6421054669193 353.54975161883937,217.94255176977418 350.22339643485674,218.3591178903578 347.0297174742641,218.88779206921072 343.9994716112943,219.52348288498794 341.16184177010877,220.2600682876295 338.5441558772843,221.0904545570495 336.17162367894144,222.00664461953806 334.06709395710834,222.999815063953 332.25083448345924,224.06040111599242 330.7403368295937,225.17818875219987 329.5501479136405,226.34241306659376 328.6917299054837,227.5418619425968 328.1733498398009,228.76498403184755 328.0,230.0 328.1733498398009,231.23501596815245 328.6917299054837,232.45813805740323 329.5501479136405,233.65758693340624 330.7403368295937,234.82181124780013 332.25083448345924,235.93959888400758 334.06709395710834,237.000184936047 336.17162367894144,237.99335538046194 338.5441558772843,238.9095454429505 341.16184177010877,239.7399317123705 343.9994716112943,240.47651711501206 347.0297174742641,241.11220793078928 350.2233964348568,241.6408821096422 353.54975161883937,242.05744823022584 356.9767484074194,242.3578945330807 360.47138294813584,242.53932755606968 364.0,242.6 367.52861705186416,242.53932755606968 371.0232515925806,242.3578945330807 374.45024838116063,242.05744823022584 377.7766035651432,241.6408821096422 380.9702825257359,241.11220793078928 384.0005283887057,240.47651711501206 386.83815822989123,239.7399317123705 389.4558441227157,238.9095454429505 391.82837632105856,237.99335538046194 393.9329060428916,237.000184936047 395.74916551654076,235.93959888400758 397.2596631704063,234.82181124780013 398.4498520863595,233.65758693340624 399.3082700945163,232.4581380574032 399.8266501601991,231.23501596815245 400.0,230.0" fill="#3b82f6" opacity="0.25" stroke="#64748b" stroke-width="0.8" />
  <polygon points="400.0,230.0 399.8266501601991,231.23501596815245 399.3082700945163,232.4581380574032 398.4498520863595,233.65758693340624 397.2596631704063,234.82181124780013 395.74916551654076,235.93959888400758 393.9329060428916,237.000184936047 391.82837632105856,237.99335538046194 389.4558441227157,238.9095454429505 386.83815822989123,239.7399317123705 384.0005283887057,240.47651711501206 380.9702825257359,241.11220793078928 377.7766035651432,241.6408821096422 374.45024838116063,242.05744823022584 371.0232515925806,242.3578945330807 367.52861705186416,242.53932755606968 364.0,242.6 360.47138294813584,242.53932755606968 356.9767484074194,242.3578945330807 353.54975161883937,242.05744823022584 350.2233964348568,241.6408821096422 347.0297174742641,241.11220793078928 343.9994716112943,240.47651711501206 341.16184177010877,239.7399317123705 338.5441558772843,238.9095454429505 336.17162367894144,237.99335538046194 334.06709395710834,237.000184936047 332.25083448345924,235.93959888400758 330.7403368295937,234.82181124780013 329.5501479136405,233.65758693340624 328.6917299054837,232.45813805740323 328.1733498398009,231.23501596815245 328.0,230.0 328.1733498398009,228.76498403184755 328.6917299054837,227.5418619425968 329.5501479136405,226.34241306659376 330.7403368295937,225.17818875219987 332.25083448345924,224.06040111599242 334.06709395710834,222.999815063953 336.17162367894144,222.00664461953806 338.5441558772843,221.0904545570495 341.16184177010877,220.2600682876295 343.9994716112943,219.52348288498794 347.0297174742641,218.88779206921072 350.22339643485674,218.3591178903578 353.54975161883937,217.94255176977418 356.9767484074194,217.6421054669193 360.47138294813584,217.46067244393032 364.0,217.4 367.52861705186416,217.46067244393032 371.0232515925806,217.6421054669193 374.45024838116063,217.94255176977416 377.77660356514326,218.3591178903578 380.9702825257359,218.88779206921072 384.0005283887057,219.5234828849879 386.83815822989123,220.2600682876295 389.4558441227157,221.0904545570495 391.8283763210585,222.00664461953806 393.9329060428916,222.999815063953 395.74916551654076,224.06040111599242 397.2596631704063,225.17818875219987 398.4498520863595,226.34241306659376 399.3082700945163,227.54186194259677 399.8266501601991,228.76498403184755" fill="#3b82f6" opacity="0.2" stroke="#64748b" stroke-width="0.8" />
  <polygon points="400.0,110.0 399.8266501601991,111.23501596815247 399.3082700945163,112.45813805740322 398.4498520863595,113.65758693340622 397.2596631704063,114.82181124780013 395.74916551654076,115.93959888400757 393.9329060428916,117.00018493604699 391.82837632105856,117.99335538046194 389.4558441227157,118.9095454429505 386.83815822989123,119.73993171237049 384.0005283887057,120.47651711501207 380.9702825257359,121.11220793078927 377.7766035651432,121.6408821096422 374.45024838116063,122.05744823022583 371.0232515925806,122.3578945330807 367.52861705186416,122.53932755606968 364.0,122.6 360.47138294813584,122.53932755606968 356.9767484074194,122.3578945330807 353.54975161883937,122.05744823022583 350.2233964348568,121.6408821096422 347.0297174742641,121.11220793078927 343.9994716112943,120.47651711501207 341.16184177010877,119.73993171237049 338.5441558772843,118.9095454429505 336.17162367894144,117.99335538046194 334.06709395710834,117.00018493604699 332.25083448345924,115.93959888400757 330.7403368295937,114.82181124780013 329.5501479136405,113.65758693340622 328.6917299054837,112.45813805740322 328.1733498398009,111.23501596815247 328.0,110.0 328.1733498398009,108.76498403184753 328.6917299054837,107.54186194259678 329.5501479136405,106.34241306659378 330.7403368295937,105.17818875219987 332.25083448345924,104.06040111599243 334.06709395710834,102.99981506395301 336.17162367894144,102.00664461953806 338.5441558772843,101.0904545570495 341.16184177010877,100.26006828762952 343.9994716112943,99.52348288498793 347.0297174742641,98.88779206921073 350.22339643485674,98.3591178903578 353.54975161883937,97.94255176977417 356.9767484074194,97.6421054669193 360.47138294813584,97.46067244393032 364.0,97.4 367.52861705186416,97.46067244393032 371.0232515925806,97.6421054669193 374.45024838116063,97.94255176977417 377.77660356514326,98.3591178903578 380.9702825257359,98.88779206921073 384.0005283887057,99.52348288498793 386.83815822989123,100.26006828762951 389.4558441227157,101.0904545570495 391.8283763210585,102.00664461953806 393.9329060428916,102.99981506395301 395.74916551654076,104.06040111599242 397.2596631704063,105.17818875219986 398.4498520863595,106.34241306659378 399.3082700945163,107.54186194259678 399.8266501601991,108.76498403184753" fill="#3b82f6" opacity="0.3" stroke="#64748b" stroke-width="0.8" />
  <line x1="400.0" y1="230.0" x2="399.8266501601991" y2="231.23501596815245" stroke="#64748b" stroke-width="0.6" />
  <line x1="399.8266501601991" y1="231.23501596815245" x2="399.3082700945163" y2="232.4581380574032" stroke="#64748b" stroke-width="0.6" />
  <line x1="399.3082700945163" y1="232.4581380574032" x2="398.4498520863595" y2="233.65758693340624" stroke="#64748b" stroke-width="0.6" />
  <line x1="398.4498520863595" y1="233.65758693340624" x2="397.2596631704063" y2="234.82181124780013" stroke="#64748b" stroke-width="0.6" />
  <line x1="397.2596631704063" y1="234.82181124780013" x2="395.74916551654076" y2="235.93959888400758" stroke="#64748b" stroke-width="0.6" />
  <line x1="395.74916551654076" y1="235.93959888400758" x2="393.9329060428916" y2="237.000184936047" stroke="#64748b" stroke-width="0.6" />
  <line x1="393.9329060428916" y1="237.000184936047" x2="391.82837632105856" y2="237.99335538046194" stroke="#64748b" stroke-width="0.6" />
  <line x1="391.82837632105856" y1="237.99335538046194" x2="389.4558441227157" y2="238.9095454429505" stroke="#64748b" stroke-width="0.6" />
  <line x1="389.4558441227157" y1="238.9095454429505" x2="386.83815822989123" y2="239.7399317123705" stroke="#64748b" stroke-width="0.6" />
  <line x1="386.83815822989123" y1="239.7399317123705" x2="384.0005283887057" y2="240.47651711501206" stroke="#64748b" stroke-width="0.6" />
  <line x1="384.0005283887057" y1="240.47651711501206" x2="380.9702825257359" y2="241.11220793078928" stroke="#64748b" stroke-width="0.6" />
  <line x1="380.9702825257359" y1="241.11220793078928" x2="377.7766035651432" y2="241.6408821096422" stroke="#64748b" stroke-width="0.6" />
  <line x1="377.7766035651432" y1="241.6408821096422" x2="374.45024838116063" y2="242.05744823022584" stroke="#64748b" stroke-width="0.6" />
  <line x1="374.45024838116063" y1="242.05744823022584" x2="371.0232515925806" y2="242.3578945330807" stroke="#64748b" stroke-width="0.6" />
  <line x1="371.0232515925806" y1="242.3578945330807" x2="367.52861705186416" y2="242.53932755606968" stroke="#64748b" stroke-width="0.6" />
  <line x1="367.52861705186416" y1="242.53932755606968" x2="364.0" y2="242.6" stroke="#64748b" stroke-width="0.6" />
  <line x1="364.0" y1="242.6" x2="360.47138294813584" y2="242.53932755606968" stroke="#64748b" stroke-width="0.6" />
  <line x1="360.47138294813584" y1="242.53932755606968" x2="356.9767484074194" y2="242.3578945330807" stroke="#64748b" stroke-width="0.6" />
  <line x1="356.9767484074194" y1="242.3578945330807" x2="353.54975161883937" y2="242.05744823022584" stroke="#64748b" stroke-width="0.6" />
  <line x1="353.54975161883937" y1="242.05744823022584" x2="350.2233964348568" y2="241.6408821096422" stroke="#64748b" stroke-width="0.6" />
  <line x1="350.2233964348568" y1="241.6408821096422" x2="347.0297174742641" y2="241.11220793078928" stroke="#64748b" stroke-width="0.6" />
  <line x1="347.0297174742641" y1="241.11220793078928" x2="343.9994716112943" y2="240.47651711501206" stroke="#64748b" stroke-width="0.6" />
  <line x1="343.9994716112943" y1="240.47651711501206" x2="341.16184177010877" y2="239.7399317123705" stroke="#64748b" stroke-width="0.6" />
  <line x1="341.16184177010877" y1="239.7399317123705" x2="338.5441558772843" y2="238.9095454429505" stroke="#64748b" stroke-width="0.6" />
  <line x1="338.5441558772843" y1="238.9095454429505" x2="336.17162367894144" y2="237.99335538046194" stroke="#64748b" stroke-width="0.6" />
  <line x1="336.17162367894144" y1="237.99335538046194" x2="334.06709395710834" y2="237.000184936047" stroke="#64748b" stroke-width="0.6" />
  <line x1="334.06709395710834" y1="237.000184936047" x2="332.25083448345924" y2="235.93959888400758" stroke="#64748b" stroke-width="0.6" />
  <line x1="332.25083448345924" y1="235.93959888400758" x2="330.7403368295937" y2="234.82181124780013" stroke="#64748b" stroke-width="0.6" />
  <line x1="330.7403368295937" y1="234.82181124780013" x2="329.5501479136405" y2="233.65758693340624" stroke="#64748b" stroke-width="0.6" />
  <line x1="329.5501479136405" y1="233.65758693340624" x2="328.6917299054837" y2="232.45813805740323" stroke="#64748b" stroke-width="0.6" />
  <line x1="328.6917299054837" y1="232.45813805740323" x2="328.1733498398009" y2="231.23501596815245" stroke="#64748b" stroke-width="0.6" />
  <line x1="328.1733498398009" y1="231.23501596815245" x2="328.0" y2="230.0" stroke="#64748b" stroke-width="0.6" />
  <line x1="328.0" y1="230.0" x2="328.1733498398009" y2="228.76498403184755" stroke="#64748b" stroke-width="0.6" />
  <line x1="328.1733498398009" y1="228.76498403184755" x2="328.6917299054837" y2="227.5418619425968" stroke="#64748b" stroke-width="0.6" />
  <line x1="328.6917299054837" y1="227.5418619425968" x2="329.5501479136405" y2="226.34241306659376" stroke="#64748b" stroke-width="0.6" />
  <line x1="329.5501479136405" y1="226.34241306659376" x2="330.7403368295937" y2="225.17818875219987" stroke="#64748b" stroke-width="0.6" />
  <line x1="330.7403368295937" y1="225.17818875219987" x2="332.25083448345924" y2="224.06040111599242" stroke="#64748b" stroke-width="0.6" />
  <line x1="332.25083448345924" y1="224.06040111599242" x2="334.06709395710834" y2="222.999815063953" stroke="#64748b" stroke-width="0.6" />
  <line x1="334.06709395710834" y1="222.999815063953" x2="336.17162367894144" y2="222.00664461953806" stroke="#64748b" stroke-width="0.6" />
  <line x1="336.17162367894144" y1="222.00664461953806" x2="338.5441558772843" y2="221.0904545570495" stroke="#64748b" stroke-width="0.6" />
  <line x1="338.5441558772843" y1="221.0904545570495" x2="341.16184177010877" y2="220.2600682876295" stroke="#64748b" stroke-width="0.6" />
  <line x1="341.16184177010877" y1="220.2600682876295" x2="343.9994716112943" y2="219.52348288498794" stroke="#64748b" stroke-width="0.6" />
  <line x1="343.9994716112943" y1="219.52348288498794" x2="347.0297174742641" y2="218.88779206921072" stroke="#64748b" stroke-width="0.6" />
  <line x1="347.0297174742641" y1="218.88779206921072" x2="350.22339643485674" y2="218.3591178903578" stroke="#64748b" stroke-width="0.6" />
  <line x1="350.22339643485674" y1="218.3591178903578" x2="353.54975161883937" y2="217.94255176977418" stroke="#64748b" stroke-width="0.6" />
  <line x1="353.54975161883937" y1="217.94255176977418" x2="356.9767484074194" y2="217.6421054669193" stroke="#64748b" stroke-width="0.6" />
  <line x1="356.9767484074194" y1="217.6421054669193" x2="360.47138294813584" y2="217.46067244393032" stroke="#64748b" stroke-width="0.6" />
  <line x1="360.47138294813584" y1="217.46067244393032" x2="364.0" y2="217.4" stroke="#64748b" stroke-width="0.6" />
  <line x1="364.0" y1="217.4" x2="367.52861705186416" y2="217.46067244393032" stroke="#64748b" stroke-width="0.6" />
  <line x1="367.52861705186416" y1="217.46067244393032" x2="371.0232515925806" y2="217.6421054669193" stroke="#64748b" stroke-width="0.6" />
  <line x1="371.0232515925806" y1="217.6421054669193" x2="374.45024838116063" y2="217.94255176977416" stroke="#64748b" stroke-width="0.6" />
  <line x1="374.45024838116063" y1="217.94255176977416" x2="377.77660356514326" y2="218.3591178903578" stroke="#64748b" stroke-width="0.6" />
  <line x1="377.77660356514326" y1="218.3591178903578" x2="380.9702825257359" y2="218.88779206921072" stroke="#64748b" stroke-width="0.6" />
  <line x1="380.9702825257359" y1="218.88779206921072" x2="384.0005283887057" y2="219.5234828849879" stroke="#64748b" stroke-width="0.6" />
  <line x1="384.0005283887057" y1="219.5234828849879" x2="386.83815822989123" y2="220.2600682876295" stroke="#64748b" stroke-width="0.6" />
  <line x1="386.83815822989123" y1="220.2600682876295" x2="389.4558441227157" y2="221.0904545570495" stroke="#64748b" stroke-width="0.6" />
  <line x1="389.4558441227157" y1="221.0904545570495" x2="391.8283763210585" y2="222.00664461953806" stroke="#64748b" stroke-width="0.6" />
  <line x1="391.8283763210585" y1="222.00664461953806" x2="393.9329060428916" y2="222.999815063953" stroke="#64748b" stroke-width="0.6" />
  <line x1="393.9329060428916" y1="222.999815063953" x2="395.74916551654076" y2="224.06040111599242" stroke="#64748b" stroke-width="0.6" />
  <line x1="395.74916551654076" y1="224.06040111599242" x2="397.2596631704063" y2="225.17818875219987" stroke="#64748b" stroke-width="0.6" />
  <line x1="397.2596631704063" y1="225.17818875219987" x2="398.4498520863595" y2="226.34241306659376" stroke="#64748b" stroke-width="0.6" />
  <line x1="398.4498520863595" y1="226.34241306659376" x2="399.3082700945163" y2="227.54186194259677" stroke="#64748b" stroke-width="0.6" />
  <line x1="399.3082700945163" y1="227.54186194259677" x2="399.8266501601991" y2="228.76498403184755" stroke="#64748b" stroke-width="0.6" />
  <line x1="399.8266501601991" y1="228.76498403184755" x2="400.0" y2="230.0" stroke="#64748b" stroke-width="0.6" />
  <line x1="400.0" y1="110.0" x2="399.8266501601991" y2="111.23501596815247" stroke="#334155" stroke-width="1.2" />
  <line x1="399.8266501601991" y1="111.23501596815247" x2="399.3082700945163" y2="112.45813805740322" stroke="#334155" stroke-width="1.2" />
  <line x1="399.3082700945163" y1="112.45813805740322" x2="398.4498520863595" y2="113.65758693340622" stroke="#334155" stroke-width="1.2" />
  <line x1="398.4498520863595" y1="113.65758693340622" x2="397.2596631704063" y2="114.82181124780013" stroke="#334155" stroke-width="1.2" />
  <line x1="397.2596631704063" y1="114.82181124780013" x2="395.74916551654076" y2="115.93959888400757" stroke="#334155" stroke-width="1.2" />
  <line x1="395.74916551654076" y1="115.93959888400757" x2="393.9329060428916" y2="117.00018493604699" stroke="#334155" stroke-width="1.2" />
  <line x1="393.9329060428916" y1="117.00018493604699" x2="391.82837632105856" y2="117.99335538046194" stroke="#334155" stroke-width="1.2" />
  <line x1="391.82837632105856" y1="117.99335538046194" x2="389.4558441227157" y2="118.9095454429505" stroke="#334155" stroke-width="1.2" />
  <line x1="389.4558441227157" y1="118.9095454429505" x2="386.83815822989123" y2="119.73993171237049" stroke="#334155" stroke-width="1.2" />
  <line x1="386.83815822989123" y1="119.73993171237049" x2="384.0005283887057" y2="120.47651711501207" stroke="#334155" stroke-width="1.2" />
  <line x1="384.0005283887057" y1="120.47651711501207" x2="380.9702825257359" y2="121.11220793078927" stroke="#334155" stroke-width="1.2" />
  <line x1="380.9702825257359" y1="121.11220793078927" x2="377.7766035651432" y2="121.6408821096422" stroke="#334155" stroke-width="1.2" />
  <line x1="377.7766035651432" y1="121.6408821096422" x2="374.45024838116063" y2="122.05744823022583" stroke="#334155" stroke-width="1.2" />
  <line x1="374.45024838116063" y1="122.05744823022583" x2="371.0232515925806" y2="122.3578945330807" stroke="#334155" stroke-width="1.2" />
  <line x1="371.0232515925806" y1="122.3578945330807" x2="367.52861705186416" y2="122.53932755606968" stroke="#334155" stroke-width="1.2" />
  <line x1="367.52861705186416" y1="122.53932755606968" x2="364.0" y2="122.6" stroke="#334155" stroke-width="1.2" />
  <line x1="364.0" y1="122.6" x2="360.47138294813584" y2="122.53932755606968" stroke="#334155" stroke-width="1.2" />
  <line x1="360.47138294813584" y1="122.53932755606968" x2="356.9767484074194" y2="122.3578945330807" stroke="#334155" stroke-width="1.2" />
  <line x1="356.9767484074194" y1="122.3578945330807" x2="353.54975161883937" y2="122.05744823022583" stroke="#334155" stroke-width="1.2" />
  <line x1="353.54975161883937" y1="122.05744823022583" x2="350.2233964348568" y2="121.6408821096422" stroke="#334155" stroke-width="1.2" />
  <line x1="350.2233964348568" y1="121.6408821096422" x2="347.0297174742641" y2="121.11220793078927" stroke="#334155" stroke-width="1.2" />
  <line x1="347.0297174742641" y1="121.11220793078927" x2="343.9994716112943" y2="120.47651711501207" stroke="#334155" stroke-width="1.2" />
  <line x1="343.9994716112943" y1="120.47651711501207" x2="341.16184177010877" y2="119.73993171237049" stroke="#334155" stroke-width="1.2" />
  <line x1="341.16184177010877" y1="119.73993171237049" x2="338.5441558772843" y2="118.9095454429505" stroke="#334155" stroke-width="1.2" />
  <line x1="338.5441558772843" y1="118.9095454429505" x2="336.17162367894144" y2="117.99335538046194" stroke="#334155" stroke-width="1.2" />
  <line x1="336.17162367894144" y1="117.99335538046194" x2="334.06709395710834" y2="117.00018493604699" stroke="#334155" stroke-width="1.2" />
  <line x1="334.06709395710834" y1="117.00018493604699" x2="332.25083448345924" y2="115.93959888400757" stroke="#334155" stroke-width="1.2" />
  <line x1="332.25083448345924" y1="115.93959888400757" x2="330.7403368295937" y2="114.82181124780013" stroke="#334155" stroke-width="1.2" />
  <line x1="330.7403368295937" y1="114.82181124780013" x2="329.5501479136405" y2="113.65758693340622" stroke="#334155" stroke-width="1.2" />
  <line x1="329.5501479136405" y1="113.65758693340622" x2="328.6917299054837" y2="112.45813805740322" stroke="#334155" stroke-width="1.2" />
  <line x1="328.6917299054837" y1="112.45813805740322" x2="328.1733498398009" y2="111.23501596815247" stroke="#334155" stroke-width="1.2" />
  <line x1="328.1733498398009" y1="111.23501596815247" x2="328.0" y2="110.0" stroke="#334155" stroke-width="1.2" />
  <line x1="328.0" y1="110.0" x2="328.1733498398009" y2="108.76498403184753" stroke="#334155" stroke-width="1.2" />
  <line x1="328.1733498398009" y1="108.76498403184753" x2="328.6917299054837" y2="107.54186194259678" stroke="#334155" stroke-width="1.2" />
  <line x1="328.6917299054837" y1="107.54186194259678" x2="329.5501479136405" y2="106.34241306659378" stroke="#334155" stroke-width="1.2" />
  <line x1="329.5501479136405" y1="106.34241306659378" x2="330.7403368295937" y2="105.17818875219987" stroke="#334155" stroke-width="1.2" />
  <line x1="330.7403368295937" y1="105.17818875219987" x2="332.25083448345924" y2="104.06040111599243" stroke="#334155" stroke-width="1.2" />
  <line x1="332.25083448345924" y1="104.06040111599243" x2="334.06709395710834" y2="102.99981506395301" stroke="#334155" stroke-width="1.2" />
  <line x1="334.06709395710834" y1="102.99981506395301" x2="336.17162367894144" y2="102.00664461953806" stroke="#334155" stroke-width="1.2" />
  <line x1="336.17162367894144" y1="102.00664461953806" x2="338.5441558772843" y2="101.0904545570495" stroke="#334155" stroke-width="1.2" />
  <line x1="338.5441558772843" y1="101.0904545570495" x2="341.16184177010877" y2="100.26006828762952" stroke="#334155" stroke-width="1.2" />
  <line x1="341.16184177010877" y1="100.26006828762952" x2="343.9994716112943" y2="99.52348288498793" stroke="#334155" stroke-width="1.2" />
  <line x1="343.9994716112943" y1="99.52348288498793" x2="347.0297174742641" y2="98.88779206921073" stroke="#334155" stroke-width="1.2" />
  <line x1="347.0297174742641" y1="98.88779206921073" x2="350.22339643485674" y2="98.3591178903578" stroke="#334155" stroke-width="1.2" />
  <line x1="350.22339643485674" y1="98.3591178903578" x2="353.54975161883937" y2="97.94255176977417" stroke="#334155" stroke-width="1.2" />
  <line x1="353.54975161883937" y1="97.94255176977417" x2="356.9767484074194" y2="97.6421054669193" stroke="#334155" stroke-width="1.2" />
  <line x1="356.9767484074194" y1="97.6421054669193" x2="360.47138294813584" y2="97.46067244393032" stroke="#334155" stroke-width="1.2" />
  <line x1="360.47138294813584" y1="97.46067244393032" x2="364.0" y2="97.4" stroke="#334155" stroke-width="1.2" />
  <line x1="364.0" y1="97.4" x2="367.52861705186416" y2="97.46067244393032" stroke="#334155" stroke-width="1.2" />
  <line x1="367.52861705186416" y1="97.46067244393032" x2="371.0232515925806" y2="97.6421054669193" stroke="#334155" stroke-width="1.2" />
  <line x1="371.0232515925806" y1="97.6421054669193" x2="374.45024838116063" y2="97.94255176977417" stroke="#334155" stroke-width="1.2" />
  <line x1="374.45024838116063" y1="97.94255176977417" x2="377.77660356514326" y2="98.3591178903578" stroke="#334155" stroke-width="1.2" />
  <line x1="377.77660356514326" y1="98.3591178903578" x2="380.9702825257359" y2="98.88779206921073" stroke="#334155" stroke-width="1.2" />
  <line x1="380.9702825257359" y1="98.88779206921073" x2="384.0005283887057" y2="99.52348288498793" stroke="#334155" stroke-width="1.2" />
  <line x1="384.0005283887057" y1="99.52348288498793" x2="386.83815822989123" y2="100.26006828762951" stroke="#334155" stroke-width="1.2" />
  <line x1="386.83815822989123" y1="100.26006828762951" x2="389.4558441227157" y2="101.0904545570495" stroke="#334155" stroke-width="1.2" />
  <line x1="389.4558441227157" y1="101.0904545570495" x2="391.8283763210585" y2="102.00664461953806" stroke="#334155" stroke-width="1.2" />
  <line x1="391.8283763210585" y1="102.00664461953806" x2="393.9329060428916" y2="102.99981506395301" stroke="#334155" stroke-width="1.2" />
  <line x1="393.9329060428916" y1="102.99981506395301" x2="395.74916551654076" y2="104.06040111599242" stroke="#334155" stroke-width="1.2" />
  <line x1="395.74916551654076" y1="104.06040111599242" x2="397.2596631704063" y2="105.17818875219986" stroke="#334155" stroke-width="1.2" />
  <line x1="397.2596631704063" y1="105.17818875219986" x2="398.4498520863595" y2="106.34241306659378" stroke="#334155" stroke-width="1.2" />
  <line x1="398.4498520863595" y1="106.34241306659378" x2="399.3082700945163" y2="107.54186194259678" stroke="#334155" stroke-width="1.2" />
  <line x1="399.3082700945163" y1="107.54186194259678" x2="399.8266501601991" y2="108.76498403184753" stroke="#334155" stroke-width="1.2" />
  <line x1="399.8266501601991" y1="108.76498403184753" x2="400.0" y2="110.0" stroke="#334155" stroke-width="1.2" />
  <line x1="328.0" y1="110.0" x2="328.0" y2="230.0" stroke="#334155" stroke-width="1.2" />
  <line x1="400.0" y1="110.0" x2="400.0" y2="230.0" stroke="#334155" stroke-width="1.2" />
  <line x1="369.0" y1="110.0" x2="395.0" y2="110.0" stroke="#ef4444" stroke-width="1.8" />
  <polygon points="364.0,110 369.0,113.0 369.0,107.0" fill="#ef4444" />
  <polygon points="400.0,110 395.0,113.0 395.0,107.0" fill="#ef4444" />
  <text x="382.0" y="128" font-family="Arial, sans-serif" font-size="8" font-weight="bold" fill="#b91c1c" text-anchor="middle">r: 1.5</text>
  <line x1="364.0" y1="115.0" x2="364.0" y2="225.0" stroke="#06b6d4" stroke-width="1.8" />
  <polygon points="364.0,110 361.0,115.0 367.0,115.0" fill="#06b6d4" />
  <polygon points="364.0,230.0 361.0,225.0 367.0,225.0" fill="#06b6d4" />
  <text x="336.0" y="170.0" font-family="Arial, sans-serif" font-size="8" font-weight="bold" fill="#0e7490" text-anchor="middle">h: 5</text>
  <text x="400.0" y="286.0" font-family="Arial, sans-serif" font-size="10" font-weight="normal" fill="#334155" text-anchor="middle">Cylinder</text>
  </g>
</svg>