<?xml version="1.0" encoding="UTF-8"?>
<svg width="800" height="480" xmlns="http://www.w3.org/2000/svg">
  <rect width="800" height="480" fill="#f8fafc" />
  <rect width="800" height="65" fill="#00695C" />
  <g id="u0" data-reveal-order="0" data-ref="title" data-type="title">
  <text x="80" y="44" font-family="Arial, sans-serif" font-size="18" font-weight="bold" fill="#FFFFFF" text-anchor="start">Explore: solid cone</text>
  </g>
  <rect x="651" y="23" width="69" height="18" rx="4" fill="#000000" opacity="0.35" />
  <text x="685" y="36" font-family="Arial, sans-serif" font-size="10" font-weight="bold" fill="#FFFFFF" text-anchor="middle">EXPLORE</text>
  <line x1="80" y1="65" x2="720" y2="65" stroke="#a5f3fc" stroke-width="1.5" />
  <rect x="80" y="65" width="58" height="16" rx="3" fill="#ecfeff" stroke="#a5f3fc" stroke-width="1.2" />
  <text x="109" y="76.5" font-family="Arial, sans-serif" font-size="8.5" font-weight="bold" fill="#083344" text-anchor="middle">EXAMPLE</text>
  <g id="u1" data-reveal-order="1" data-ref="center" data-type="solid_shape">
  <polygon points="360.0,110 400.0,230.0 399.8073890668879,231.37223996461384 399.23141121612923,232.7312645082258 398.27761342928835,234.06398548156247 396.9551813004515,235.35756805311127 395.2768505739342,236.59955431556398 393.2587844921018,237.77798326227443 390.9204181345095,238.88150597829105 388.2842712474619,239.89949493661166 385.37573136654584,240.82214634707833 382.2228093207841,241.64057457223564 378.8558694730399,242.34689770087698 375.3073372946036,242.93431345515802 371.6113870901785,243.39716470025093 367.8036128806451,243.73099392564524 363.92068561318246,243.93258617341075 360.0,244.0 356.0793143868176,243.93258617341075 352.1963871193549,243.73099392564524 348.3886129098215,243.39716470025093 344.6926627053964,242.93431345515802 341.1441305269601,242.34689770087698 337.7771906792159,241.64057457223564 334.62426863345416,240.82214634707833 331.7157287525381,239.89949493661166 329.0795818654905,238.88150597829105 326.7412155078982,237.77798326227443 324.7231494260658,236.59955431556398 323.0448186995485,235.35756805311127 321.72238657071165,234.06398548156247 320.76858878387077,232.7312645082258 320.1926109331121,231.37223996461384 320.0,230.0" fill="#3b82f6" opacity="0.25" stroke="#64748b" stroke-width="0.8" />
  <polygon points="400.0,230.0 399.8073890668879,231.37223996461384 399.23141121612923,232.7312645082258 398.27761342928835,234.06398548156247 396.9551813004515,235.35756805311127 395.2768505739342,236.59955431556398 393.2587844921018,237.77798326227443 390.9204181345095,238.88150597829105 388.2842712474619,239.89949493661166 385.37573136654584,240.82214634707833 382.2228093207841,241.64057457223564 378.8558694730399,242.34689770087698 375.3073372946036,242.93431345515802 371.6113870901785,243.39716470025093 367.8036128806451,243.73099392564524 363.92068561318246,243.93258617341075 360.0,244.0 356.0793143868176,243.93258617341075 352.1963871193549,243.73099392564524 348.3886129098215,243.39716470025093 344.6926627053964,242.93431345515802 341.1441305269601,242.34689770087698 337.7771906792159,241.64057457223564 334.62426863345416,240.82214634707833 331.7157287525381,239.89949493661166 329.0795818654905,238.88150597829105 326.7412155078982,237.77798326227443 324.7231494260658,236.59955431556398 323.0448186995485,235.35756805311127 321.72238657071165,234.06398548156247 320.76858878387077,232.7312645082258 320.1926109331121,231.37223996461384 320.0,230.0 320.1926109331121,228.62776003538616 320.76858878387077,227.2687354917742 321.72238657071165,225.93601451843753 323.0448186995485,224.64243194688873 324.7231494260658,223.40044568443602 326.7412155078982,222.22201673772557 329.0795818654905,221.11849402170895 331.7157287525381,220.10050506338834 334.62426863345416,219.1778536529217 337.7771906792159,218.35942542776436 341.1441305269601,217.65310229912302 344.6926627053964,217.06568654484198 348.3886129098215,216.60283529974907 352.1963871193549,216.26900607435476 356.0793143868176,216.06741382658925 360.0,216.0 363.9206856131824,216.06741382658925 367.8036128806451,216.26900607435476 371.6113870901785,216.60283529974907 375.3073372946036,217.06568654484198 378.8558694730399,217.65310229912302 382.22280932078405,218.35942542776436 385.37573136654584,219.17785365292167 388.2842712474619,220.10050506338834 390.9204181345095,221.11849402170895 393.2587844921018,222.22201673772557 395.2768505739342,223.40044568443602 396.95518130045144,224.64243194688873 398.27761342928835,225.93601451843753 399.23141121612923,227.2687354917742 399.8073890668879,228.62776003538616" fill="#3b82f6" opacity="0.2" stroke="#64748b" stroke-width="0.8" />
  <line x1="400.0" y1="230.0" x2="399.8073890668879" y2="231.37223996461384" stroke="#64748b" stroke-width="0.8" />
  <line x1="399.8073890668879" y1="231.37223996461384" x2="399.23141121612923" y2="232.7312645082258" stroke="#64748b" stroke-width="0.8" />
  <line x1="399.23141121612923" y1="232.7312645082258" x2="398.27761342928835" y2="234.06398548156247" stroke="#64748b" stroke-width="0.8" />
  <line x1="398.27761342928835" y1="234.06398548156247" x2="396.9551813004515" y2="235.35756805311127" stroke="#64748b" stroke-width="0.8" />
  <line x1="396.9551813004515" y1="235.35756805311127" x2="395.2768505739342" y2="236.59955431556398" stroke="#64748b" stroke-width="0.8" />
  <line x1="395.2768505739342" y1="236.59955431556398" x2="393.2587844921018" y2="237.77798326227443" stroke="#64748b" stroke-width="0.8" />
  <line x1="393.2587844921018" y1="237.77798326227443" x2="390.9204181345095" y2="238.88150597829105" stroke="#64748b" stroke-width="0.8" />
  <line x1="390.9204181345095" y1="238.88150597829105" x2="388.2842712474619" y2="239.89949493661166" stroke="#64748b" stroke-width="0.8" />
  <line x1="388.2842712474619" y1="239.89949493661166" x2="385.37573136654584" y2="240.82214634707833" stroke="#64748b" stroke-width="0.8" />
  <line x1="385.37573136654584" y1="240.82214634707833" x2="382.2228093207841" y2="241.64057457223564" stroke="#64748b" stroke-width="0.8" />
  <line x1="382.2228093207841" y1="241.64057457223564" x2="378.8558694730399" y2="242.34689770087698" stroke="#64748b" stroke-width="0.8" />
  <line x1="378.8558694730399" y1="242.34689770087698" x2="375.3073372946036" y2="242.93431345515802" stroke="#64748b" stroke-width="0.8" />
  <line x1="375.3073372946036" y1="242.93431345515802" x2="371.6113870901785" y2="243.39716470025093" stroke="#64748b" stroke-width="0.8" />
  <line x1="371.6113870901785" y1="243.39716470025093" x2="367.8036128806451" y2="243.73099392564524" stroke="#64748b" stroke-width="0.8" />
  <line x1="367.8036128806451" y1="243.73099392564524" x2="363.92068561318246" y2="243.93258617341075" stroke="#64748b" stroke-width="0.8" />
  <line x1="363.92068561318246" y1="243.93258617341075" x2="360.0" y2="244.0" stroke="#64748b" stroke-width="0.8" />
  <line x1="360.0" y1="244.0" x2="356.0793143868176" y2="243.93258617341075" stroke="#64748b" stroke-width="0.8" />
  <line x1="356.0793143868176" y1="243.93258617341075" x2="352.1963871193549" y2="243.73099392564524" stroke="#64748b" stroke-width="0.8" />
  <line x1="352.1963871193549" y1="243.73099392564524" x2="348.3886129098215" y2="243.39716470025093" stroke="#64748b" stroke-width="0.8" />
  <line x1="348.3886129098215" y1="243.39716470025093" x2="344.6926627053964" y2="242.93431345515802" stroke="#64748b" stroke-width="0.8" />
  <line x1="344.6926627053964" y1="242.93431345515802" x2="341.1441305269601" y2="242.34689770087698" stroke="#64748b" stroke-width="0.8" />
  <line x1="341.1441305269601" y1="242.34689770087698" x2="337.7771906792159" y2="241.64057457223564" stroke="#64748b" stroke-width="0.8" />
  <line x1="337.7771906792159" y1="241.64057457223564" x2="334.62426863345416" y2="240.82214634707833" stroke="#64748b" stroke-width="0.8" />
  <line x1="334.62426863345416" y1="240.82214634707833" x2="331.7157287525381" y2="239.89949493661166" stroke="#64748b" stroke-width="0.8" />
  <line x1="331.7157287525381" y1="239.89949493661166" x2="329.0795818654905" y2="238.88150597829105" stroke="#64748b" stroke-width="0.8" />
  <line x1="329.0795818654905" y1="238.88150597829105" x2="326.7412155078982" y2="237.77798326227443" stroke="#64748b" stroke-width="0.8" />
  <line x1="326.7412155078982" y1="237.77798326227443" x2="324.7231494260658" y2="236.59955431556398" stroke="#64748b" stroke-width="0.8" />
  <line x1="324.7231494260658" y1="236.59955431556398" x2="323.0448186995485" y2="235.35756805311127" stroke="#64748b" stroke-width="0.8" />
  <line x1="323.0448186995485" y1="235.35756805311127" x2="321.72238657071165" y2="234.06398548156247" stroke="#64748b" stroke-width="0.8" />
  <line x1="321.72238657071165" y1="234.06398548156247" x2="320.76858878387077" y2="232.7312645082258" stroke="#64748b" stroke-width="0.8" />
  <line x1="320.76858878387077" y1="232.7312645082258" x2="320.1926109331121" y2="231.37223996461384" stroke="#64748b" stroke-width="0.8" />
  <line x1="320.1926109331121" y1="231.37223996461384" x2="320.0" y2="230.0" stroke="#64748b" stroke-width="0.8" />
  <line x1="320.0" y1="230.0" x2="320.1926109331121" y2="228.62776003538616" stroke="#64748b" stroke-width="0.8" />
  <line x1="320.1926109331121" y1="228.62776003538616" x2="320.76858878387077" y2="227.2687354917742" stroke="#64748b" stroke-width="0.8" />
  <line x1="320.76858878387077" y1="227.2687354917742" x2="321.72238657071165" y2="225.93601451843753" stroke="#64748b" stroke-width="0.8" />
  <line x1="321.72238657071165" y1="225.93601451843753" x2="323.0448186995485" y2="224.64243194688873" stroke="#64748b" stroke-width="0.8" />
  <line x1="323.0448186995485" y1="224.64243194688873" x2="324.7231494260658" y2="223.40044568443602" stroke="#64748b" stroke-width="0.8" />
  <line x1="324.7231494260658" y1="223.40044568443602" x2="326.7412155078982" y2="222.22201673772557" stroke="#64748b" stroke-width="0.8" />
  <line x1="326.7412155078982" y1="222.22201673772557" x2="329.0795818654905" y2="221.11849402170895" stroke="#64748b" stroke-width="0.8" />
  <line x1="329.0795818654905" y1="221.11849402170895" x2="331.7157287525381" y2="220.10050506338834" stroke="#64748b" stroke-width="0.8" />
  <line x1="331.7157287525381" y1="220.10050506338834" x2="334.62426863345416" y2="219.1778536529217" stroke="#64748b" stroke-width="0.8" />
  <line x1="334.62426863345416" y1="219.1778536529217" x2="337.7771906792159" y2="218.35942542776436" stroke="#64748b" stroke-width="0.8" />
  <line x1="337.7771906792159" y1="218.35942542776436" x2="341.1441305269601" y2="217.65310229912302" stroke="#64748b" stroke-width="0.8" />
  <line x1="341.1441305269601" y1="217.65310229912302" x2="344.6926627053964" y2="217.06568654484198" stroke="#64748b" stroke-width="0.8" />
  <line x1="344.6926627053964" y1="217.06568654484198" x2="348.3886129098215" y2="216.60283529974907" stroke="#64748b" stroke-width="0.8" />
  <line x1="348.3886129098215" y1="216.60283529974907" x2="352.1963871193549" y2="216.26900607435476" stroke="#64748b" stroke-width="0.8" />
  <line x1="352.1963871193549" y1="216.26900607435476" x2="356.0793143868176" y2="216.06741382658925" stroke="#64748b" stroke-width="0.8" />
  <line x1="356.0793143868176" y1="216.06741382658925" x2="360.0" y2="216.0" stroke="#64748b" stroke-width="0.8" />
  <line x1="360.0" y1="216.0" x2="363.9206856131824" y2="216.06741382658925" stroke="#64748b" stroke-width="0.8" />
  <line x1="363.9206856131824" y1="216.06741382658925" x2="367.8036128806451" y2="216.26900607435476" stroke="#64748b" stroke-width="0.8" />
  <line x1="367.8036128806451" y1="216.26900607435476" x2="371.6113870901785" y2="216.60283529974907" stroke="#64748b" stroke-width="0.8" />
  <line x1="371.6113870901785" y1="216.60283529974907" x2="375.3073372946036" y2="217.06568654484198" stroke="#64748b" stroke-width="0.8" />
  <line x1="375.3073372946036" y1="217.06568654484198" x2="378.8558694730399" y2="217.65310229912302" stroke="#64748b" stroke-width="0.8" />
  <line x1="378.8558694730399" y1="217.65310229912302" x2="382.22280932078405" y2="218.35942542776436" stroke="#64748b" stroke-width="0.8" />
  <line x1="382.22280932078405" y1="218.35942542776436" x2="385.37573136654584" y2="219.17785365292167" stroke="#64748b" stroke-width="0.8" />
  <line x1="385.37573136654584" y1="219.17785365292167" x2="388.2842712474619" y2="220.10050506338834" stroke="#64748b" stroke-width="0.8" />
  <line x1="388.2842712474619" y1="220.10050506338834" x2="390.9204181345095" y2="221.11849402170895" stroke="#64748b" stroke-width="0.8" />
  <line x1="390.9204181345095" y1="221.11849402170895" x2="393.2587844921018" y2="222.22201673772557" stroke="#64748b" stroke-width="0.8" />
  <line x1="393.2587844921018" y1="222.22201673772557" x2="395.2768505739342" y2="223.40044568443602" stroke="#64748b" stroke-width="0.8" />
  <line x1="395.2768505739342" y1="223.40044568443602" x2="396.95518130045144" y2="224.64243194688873" stroke="#64748b" stroke-width="0.8" />
  <line x1="396.95518130045144" y1="224.64243194688873" x2="398.27761342928835" y2="225.93601451843753" stroke="#64748b" stroke-width="0.8" />
  <line x1="398.27761342928835" y1="225.93601451843753" x2="399.23141121612923" y2="227.2687354917742" stroke="#64748b" stroke-width="0.8" />
  <line x1="399.23141121612923" y1="227.2687354917742" x2="399.8073890668879" y2="228.62776003538616" stroke="#64748b" stroke-width="0.8" />
  <line x1="399.8073890668879" y1="228.62776003538616" x2="400.0" y2="230.0" stroke="#64748b" stroke-width="0.8" />
  <line x1="360.0" y1="110" x2="320.0" y2="230.0" stroke="#334155" stroke-width="1.2" />
  <line x1="360.0" y1="110" x2="400.0" y2="230.0" stroke="#334155" stroke-width="1.2" />
  <line x1="365.0" y1="230.0" x2="395.0" y2="230.0" stroke="#ef4444" stroke-width="1.8" />
  <polygon points="360.0,230.0 365.0,233.0 365.0,227.0" fill="#ef4444" />
  <polygon points="400.0,230.0 395.0,233.0 395.0,227.0" fill="#ef4444" />
  <text x="380.0" y="248.0" font-family="Arial, sans-serif" font-size="8" font-weight="bold" fill="#b91c1c" text-anchor="middle">r: 2.0</text>
  <line x1="360.0" y1="115.0" x2="360.0" y2="225.0" stroke="#06b6d4" stroke-width="1.8" />
  <polygon points="360.0,110 357.0,115.0 363.0,115.0" fill="#06b6d4" />
  <polygon points="360.0,230.0 357.0,225.0 363.0,225.0" fill="#06b6d4" />
  <text x="332.0" y="170.0" font-family="Arial, sans-serif" font-size="8" font-weight="bold" fill="#0e7490" text-anchor="middle">h: 6</text>
  <text x="400.0" y="290.0" font-family="Arial, sans-serif" font-size="10" font-weight="normal" fill="#334155" text-anchor="middle">Cone</text>
  </g>
</svg>