<?xml version="1.0" encoding="UTF-8"?>
<svg width="800" height="480" xmlns="http://www.w3.org/2000/svg">
  <rect width="800" height="480" fill="#f8fafc" />
  <rect width="800" height="65" fill="#1565C0" />
  <g id="u0" data-reveal-order="0" data-ref="title" data-type="title">
  <text x="80" y="44" font-family="Arial, sans-serif" font-size="18" font-weight="bold" fill="#FFFFFF" text-anchor="start">Explain: solid rectangular prism</text>
  </g>
  <rect x="651" y="23" width="69" height="18" rx="4" fill="#000000" opacity="0.35" />
  <text x="685" y="36" font-family="Arial, sans-serif" font-size="10" font-weight="bold" fill="#FFFFFF" text-anchor="middle">EXPLAIN</text>
  <line x1="80" y1="65" x2="720" y2="65" stroke="#a5f3fc" stroke-width="1.5" />
  <rect x="80" y="65" width="58" height="16" rx="3" fill="#ecfeff" stroke="#a5f3fc" stroke-width="1.2" />
  <text x="109" y="76.5" font-family="Arial, sans-serif" font-size="8.5" font-weight="bold" fill="#083344" text-anchor="middle">EXAMPLE</text>
  <g id="u1" data-reveal-order="1" data-ref="center" data-type="solid_shape">
  <polygon points="298.432,110.0 418.432,110.0 418.432,182.0 298.432,182.0" fill="#3b82f6" opacity="0.25" stroke="#64748b" stroke-width="0.8" />
  <polygon points="298.432,182.0 418.432,182.0 335.29600000000005,230.0 215.29600000000002,230.0" fill="#3b82f6" opacity="0.3" stroke="#64748b" stroke-width="0.8" />
  <polygon points="418.432,110.0 335.29600000000005,158.0 335.29600000000005,230.0 418.432,182.0" fill="#3b82f6" opacity="0.2" stroke="#64748b" stroke-width="0.8" />
  <line x1="298.432" y1="110.0" x2="418.432" y2="110.0" stroke="#64748b" stroke-width="0.8" />
  <line x1="418.432" y1="110.0" x2="418.432" y2="182.0" stroke="#64748b" stroke-width="0.8" />
  <line x1="418.432" y1="182.0" x2="298.432" y2="182.0" stroke="#64748b" stroke-width="0.8" />
  <line x1="298.432" y1="182.0" x2="298.432" y2="110.0" stroke="#64748b" stroke-width="0.8" />
  <line x1="215.29600000000002" y1="158.0" x2="335.29600000000005" y2="158.0" stroke="#64748b" stroke-width="0.8" />
  <line x1="335.29600000000005" y1="158.0" x2="335.29600000000005" y2="230.0" stroke="#64748b" stroke-width="0.8" />
  <line x1="335.29600000000005" y1="230.0" x2="215.29600000000002" y2="230.0" stroke="#64748b" stroke-width="0.8" />
  <line x1="215.29600000000002" y1="230.0" x2="215.29600000000002" y2="158.0" stroke="#64748b" stroke-width="0.8" />
  <line x1="298.432" y1="110.0" x2="215.29600000000002" y2="158.0" stroke="#64748b" stroke-width="0.8" />
  <line x1="418.432" y1="110.0" x2="335.29600000000005" y2="158.0" stroke="#64748b" stroke-width="0.8" />
  <line x1="418.432" y1="182.0" x2="335.29600000000005" y2="230.0" stroke="#64748b" stroke-width="0.8" />
  <line x1="298.432" y1="182.0" x2="215.29600000000002" y2="230.0" stroke="#64748b" stroke-width="0.8" />
  <line x1="303.432" y1="110.0" x2="413.432" y2="110.0" stroke="#ef4444" stroke-width="1.8" />
  <polygon points="298.432,110.0 303.432,113.0 303.432,107.0" fill="#ef4444" />
  <polygon points="418.432,110.0 413.432,113.0 413.432,107.0" fill="#ef4444" />
  <text x="358.432" y="128.0" font-family="Arial, sans-serif" font-size="8" font-weight="bold" fill="#b91c1c" text-anchor="middle">w: 5</text>
  <line x1="418.432" y1="115.0" x2="418.432" y2="177.0" stroke="#06b6d4" stroke-width="1.8" />
  <polygon points="418.432,110.0 415.432,115.0 421.432,115.0" fill="#06b6d4" />
  <polygon points="418.432,182.0 415.432,177.0 421.432,177.0" fill="#06b6d4" />
  <text x="390.432" y="146.0" font-family="Arial, sans-serif" font-size="8" font-weight="bold" fill="#0e7490" text-anchor="middle">h: 3</text>
  <line x1="294.10190473685634" y1="112.50005500181507" x2="219.62609526314372" y2="155.49994499818493" stroke="#22c55e" stroke-width="1.8" />
  <polygon points="298.432,110.0 292.6018717357673,109.90199784392885 295.6019377379454,115.09811215970129" fill="#22c55e" />
  <polygon points="215.29600000000002,158.0 218.1260622620547,152.9018878402987 221.12612826423276,158.09800215607115" fill="#22c55e" />
  <text x="276.86400000000003" y="134.0" font-family="Arial, sans-serif" font-size="8" font-weight="bold" fill="#15803d" text-anchor="middle">d: 4</text>
  <text x="400.0" y="250.0" font-family="Arial, sans-serif" font-size="10" font-weight="normal" fill="#334155" text-anchor="middle">Rectangular Prism (w×h×d)</text>
  </g>
</svg>