<?xml version="1.0" encoding="UTF-8"?>
<svg width="800" height="480" xmlns="http://www.w3.org/2000/svg">
  <rect width="800" height="480" fill="#f8fafc" />
  <rect width="800" height="65" fill="#1565C0" />
  <g id="u0" data-reveal-order="0" data-ref="title" data-type="title">
  <text x="80" y="44" font-family="Arial, sans-serif" font-size="18" font-weight="bold" fill="#FFFFFF" text-anchor="start">Explain: solid cube</text>
  </g>
  <rect x="651" y="23" width="69" height="18" rx="4" fill="#000000" opacity="0.35" />
  <text x="685" y="36" font-family="Arial, sans-serif" font-size="10" font-weight="bold" fill="#FFFFFF" text-anchor="middle">EXPLAIN</text>
  <line x1="80" y1="65" x2="720" y2="65" stroke="#a5f3fc" stroke-width="1.5" />
  <rect x="80" y="65" width="58" height="16" rx="3" fill="#ecfeff" stroke="#a5f3fc" stroke-width="1.2" />
  <text x="109" y="76.5" font-family="Arial, sans-serif" font-size="8.5" font-weight="bold" fill="#083344" text-anchor="middle">EXAMPLE</text>
  <g id="u1" data-reveal-order="1" data-ref="center" data-type="solid_shape">
  <polygon points="288.03999999999996,110.0 408.03999999999996,110.0 408.03999999999996,230.0 288.03999999999996,230.0" fill="#3b82f6" opacity="0.25" stroke="#64748b" stroke-width="0.8" />
  <polygon points="288.03999999999996,230.0 408.03999999999996,230.0 304.11999999999995,290.0 184.11999999999995,290.0" fill="#3b82f6" opacity="0.3" stroke="#64748b" stroke-width="0.8" />
  <polygon points="408.03999999999996,110.0 304.11999999999995,170.0 304.11999999999995,290.0 408.03999999999996,230.0" fill="#3b82f6" opacity="0.2" stroke="#64748b" stroke-width="0.8" />
  <line x1="288.03999999999996" y1="110.0" x2="408.03999999999996" y2="110.0" stroke="#64748b" stroke-width="0.8" />
  <line x1="408.03999999999996" y1="110.0" x2="408.03999999999996" y2="230.0" stroke="#64748b" stroke-width="0.8" />
  <line x1="408.03999999999996" y1="230.0" x2="288.03999999999996" y2="230.0" stroke="#64748b" stroke-width="0.8" />
  <line x1="288.03999999999996" y1="230.0" x2="288.03999999999996" y2="110.0" stroke="#64748b" stroke-width="0.8" />
  <line x1="184.11999999999995" y1="170.0" x2="304.11999999999995" y2="170.0" stroke="#64748b" stroke-width="0.8" />
  <line x1="304.11999999999995" y1="170.0" x2="304.11999999999995" y2="290.0" stroke="#64748b" stroke-width="0.8" />
  <line x1="304.11999999999995" y1="290.0" x2="184.11999999999995" y2="290.0" stroke="#64748b" stroke-width="0.8" />
  <line x1="184.11999999999995" y1="290.0" x2="184.11999999999995" y2="170.0" stroke="#64748b" stroke-width="0.8" />
  <line x1="288.03999999999996" y1="110.0" x2="184.11999999999995" y2="170.0" stroke="#64748b" stroke-width="0.8" />
  <line x1="408.03999999999996" y1="110.0" x2="304.11999999999995" y2="170.0" stroke="#64748b" stroke-width="0.8" />
  <line x1="408.03999999999996" y1="230.0" x2="304.11999999999995" y2="290.0" stroke="#64748b" stroke-width="0.8" />
  <line x1="288.03999999999996" y1="230.0" x2="184.11999999999995" y2="290.0" stroke="#64748b" stroke-width="0.8" />
  <line x1="293.03999999999996" y1="110.0" x2="403.03999999999996" y2="110.0" stroke="#ef4444" stroke-width="1.8" />
  <polygon points="288.03999999999996,110.0 293.03999999999996,113.0 293.03999999999996,107.0" fill="#ef4444" />
  <polygon points="408.03999999999996,110.0 403.03999999999996,113.0 403.03999999999996,107.0" fill="#ef4444" />
  <text x="348.03999999999996" y="128.0" font-family="Arial, sans-serif" font-size="8" font-weight="bold" fill="#b91c1c" text-anchor="middle">w: 4</text>
  <line x1="408.03999999999996" y1="115.0" x2="408.03999999999996" y2="225.0" stroke="#06b6d4" stroke-width="1.8" />
  <polygon points="408.03999999999996,110.0 405.03999999999996,115.0 411.03999999999996,115.0" fill="#06b6d4" />
  <polygon points="408.03999999999996,230.0 405.03999999999996,225.0 411.03999999999996,225.0" fill="#06b6d4" />
  <text x="380.03999999999996" y="170.0" font-family="Arial, sans-serif" font-size="8" font-weight="bold" fill="#0e7490" text-anchor="middle">h: 4</text>
  <line x1="283.7099047368563" y1="112.50005500181507" x2="188.45009526314365" y2="167.49994499818493" stroke="#22c55e" stroke-width="1.8" />
  <polygon points="288.03999999999996,110.0 282.20987173576725,109.90199784392885 285.2099377379453,115.09811215970129" fill="#22c55e" />
  <polygon points="184.11999999999995,170.0 186.95006226205462,164.9018878402987 189.9501282642327,170.09800215607115" fill="#22c55e" />
  <text x="256.0799999999999" y="140.0" font-family="Arial, sans-serif" font-size="8" font-weight="bold" fill="#15803d" text-anchor="middle">d: 4</text>
  <text x="400.0" y="310.0" font-family="Arial, sans-serif" font-size="10" font-weight="normal" fill="#334155" text-anchor="middle">Cube (4 cm)</text>
  </g>
</svg>