<?xml version="1.0" encoding="UTF-8"?>
<svg width="800" height="480" xmlns="http://www.w3.org/2000/svg">
  <rect width="800" height="480" fill="#f8fafc" />
  <rect width="800" height="65" fill="#004D40" />
  <g id="u0" data-reveal-order="0" data-ref="title" data-type="title">
  <text x="80" y="44" font-family="Arial, sans-serif" font-size="18" font-weight="bold" fill="#FFFFFF" text-anchor="start">Independent Practice: practice routine triangle 2</text>
  </g>
  <rect x="651" y="23" width="69" height="18" rx="4" fill="#000000" opacity="0.35" />
  <text x="685" y="36" font-family="Arial, sans-serif" font-size="10" font-weight="bold" fill="#FFFFFF" text-anchor="middle">ROUTINE</text>
  <line x1="80" y1="65" x2="720" y2="65" stroke="#bbf7d0" stroke-width="1.5" />
  <rect x="80" y="65" width="64" height="16" rx="3" fill="#f0fdf4" stroke="#bbf7d0" stroke-width="1.2" />
  <text x="112" y="76.5" font-family="Arial, sans-serif" font-size="8.5" font-weight="bold" fill="#14532d" text-anchor="middle">PRACTICE</text>
  <g id="u1" data-reveal-order="1" data-ref="center" data-type="multiple_choice">
  <rect x="80" y="90" width="640" height="152" rx="8" fill="#ffffff" stroke="#e2e8f0" stroke-width="1.2" />
  <path d="M 105 91 L 88 91 A 7 7 0 0 0 81 98 L 81 234 A 7 7 0 0 0 88 241 L 105 241 Z" fill="#ffedd5" />
  <line x1="105" y1="91" x2="105" y2="241" stroke="#fdba74" stroke-width="1" />
  <text x="93" y="166.0" font-family="Arial, sans-serif" font-size="9.5" font-weight="bold" fill="#9a3412" text-anchor="middle" transform="rotate(-90, 93, 166.0)">SOLVE</text>
  <text x="116" y="119" font-family="Arial, sans-serif" font-size="13" font-weight="bold" fill="#0f172a" text-anchor="start">An isosceles triangle has one vertex angle of 40 deg. What is the measure of each</text>
  <text x="116" y="137" font-family="Arial, sans-serif" font-size="13" font-weight="bold" fill="#0f172a" text-anchor="start">of the other two equal base angles?</text>
  <rect x="116" y="165" width="286" height="30" rx="6" fill="#ffffff" stroke="#e2e8f0" stroke-width="1.5" />
  <circle cx="135" cy="180" r="11" fill="#f1f5f9" />
  <text x="135" y="183.5" font-family="Arial, sans-serif" font-size="12" font-weight="bold" fill="#64748b" text-anchor="middle">A</text>
  <text x="158" y="183" font-family="Arial, sans-serif" font-size="12" font-weight="normal" fill="#334155" text-anchor="start">70 deg</text>
  <rect x="418" y="165" width="286" height="30" rx="6" fill="#ffffff" stroke="#e2e8f0" stroke-width="1.5" />
  <circle cx="437" cy="180" r="11" fill="#f1f5f9" />
  <text x="437" y="183.5" font-family="Arial, sans-serif" font-size="12" font-weight="bold" fill="#64748b" text-anchor="middle">B</text>
  <text x="460" y="183" font-family="Arial, sans-serif" font-size="12" font-weight="normal" fill="#334155" text-anchor="start">40 deg</text>
  <rect x="116" y="207" width="286" height="30" rx="6" fill="#ffffff" stroke="#e2e8f0" stroke-width="1.5" />
  <circle cx="135" cy="222" r="11" fill="#f1f5f9" />
  <text x="135" y="225.5" font-family="Arial, sans-serif" font-size="12" font-weight="bold" fill="#64748b" text-anchor="middle">C</text>
  <text x="158" y="225" font-family="Arial, sans-serif" font-size="12" font-weight="normal" fill="#334155" text-anchor="start">80 deg</text>
  <rect x="418" y="207" width="286" height="30" rx="6" fill="#ffffff" stroke="#e2e8f0" stroke-width="1.5" />
  <circle cx="437" cy="222" r="11" fill="#f1f5f9" />
  <text x="437" y="225.5" font-family="Arial, sans-serif" font-size="12" font-weight="bold" fill="#64748b" text-anchor="middle">D</text>
  <text x="460" y="225" font-family="Arial, sans-serif" font-size="12" font-weight="normal" fill="#334155" text-anchor="start">140 deg</text>
  </g>
</svg>